<svg id="Calque_1" data-name="Calque 1" xmlns="http://www.w3.org/2000/svg" viewBox="0 0 68.63 69.18"><defs><style>.cls-1{fill:#bdbdbd;}.cls-1,.cls-2,.cls-3,.cls-4{stroke:#000;stroke-linecap:round;stroke-linejoin:round;}.cls-2{fill:#e3e4e3;}.cls-3{fill:#878788;}.cls-4{fill:#9bff00;}</style></defs><title>G22</title><polygon class="cls-1" points="68.13 68.68 0.5 68.68 0.5 1.06 60.34 1.06 68.13 8.85 68.13 68.68"/><rect class="cls-2" x="5.68" y="29.02" width="55.91" height="39.66"/><rect class="cls-3" x="5.85" y="1.06" width="49.6" height="21.43"/><rect class="cls-2" x="13.48" y="0.5" width="41.97" height="21.99"/><rect class="cls-3" x="44.09" y="3.7" width="6.35" height="16.24"/><path class="cls-4" d="M54.67,54.69l-.13.48a1.28,1.28,0,0,0-.07.28c-.3,2.1-1,2.8-2.93,3-1.31.13-2.67.13-4,.13H42.06c0-1.1.08-1.15,1.21-1.56C51.9,53.87,56.38,46.1,55,36.73c-.88-5.79-4.17-10.2-9.8-13.08-4-2-8.5-2.71-14.17-2.07-9,1-17.95,8.66-17.23,19.71a16.7,16.7,0,0,0,3.28,9.47,17.44,17.44,0,0,0,9.72,6.63v1.19H19a14.84,14.84,0,0,1-2-.16A2.8,2.8,0,0,1,14.38,56c-.11-.64-.17-1-.49-1.2s-.68-.14-1.32,0l-.37.08V65.3H30.49v-.66a2.16,2.16,0,0,0,0-.36l-.15-2.23c-.13-2-.26-3.93-.35-5.9a1.38,1.38,0,0,0-1-1.37,9.51,9.51,0,0,1-5.62-6A26.13,26.13,0,0,1,22,38.66a16.72,16.72,0,0,1,2.89-8.89c3-4.28,7.44-6,12.2-4.84a12,12,0,0,1,8.54,7.74c1.68,4.27,1.9,8.94.67,14.29-.94,4.08-3.09,6.68-6.57,7.93A1.44,1.44,0,0,0,39,56c-.17,1.67-.31,3.34-.45,5v.22c-.07.81-.12,1.62-.18,2.44l-.12,1.65h18.3V54.69Z" transform="translate(-0.76 -0.5)"/></svg>