<svg id="Calque_1" data-name="Calque 1" xmlns="http://www.w3.org/2000/svg" viewBox="0 0 117.75 117.38"><defs><style>.cls-1{fill:silver;}.cls-1,.cls-10,.cls-11,.cls-2,.cls-3,.cls-4,.cls-5,.cls-6,.cls-7,.cls-8,.cls-9{stroke:#000;stroke-linecap:round;stroke-linejoin:round;}.cls-2{fill:#dddede;}.cls-3{fill:#aeafae;}.cls-4{fill:#fff;}.cls-5{fill:#9bff00;}.cls-6{fill:#454444;}.cls-7{fill:#ff0;}.cls-8{fill:#67b44c;}.cls-9{fill:aqua;}.cls-10{fill:#f0f;}.cls-11{fill:#d6d6d6;}</style></defs><title>1.WIKI_ICONES</title><rect class="cls-1" x="21.99" y="75.19" width="64.54" height="20.25"/><polygon class="cls-2" points="22 75.19 31.21 65.07 95.75 65.07 86.53 75.19 22 75.19"/><polygon class="cls-3" points="86.53 95.44 86.53 75.19 95.75 65.07 95.75 85.31 86.53 95.44"/><rect class="cls-4" x="34.28" y="81.96" width="46.12" height="3.84" rx="1.92" ry="1.92"/><circle class="cls-5" cx="28.39" cy="83.89" r="1.39"/><circle class="cls-2" cx="62.77" cy="53.28" r="26.07"/><line class="cls-6" x1="62.77" y1="47.28" x2="62.77" y2="27.21"/><path class="cls-7" d="M65,58.85l7.5,18.63a27.65,27.65,0,0,1-4.83,1.41,18,18,0,0,1-4.87.46V59.27Z"/><line class="cls-8" x1="52.87" y1="29.15" x2="60.48" y2="47.73"/><line class="cls-8" x1="58.35" y1="49.23" x2="43.63" y2="35.58"/><path class="cls-9" d="M67.14,57.37,65,58.85l7.5,18.63a19.31,19.31,0,0,0,5.18-2.79A20.81,20.81,0,0,0,81.87,71L67.14,57.37"/><path class="cls-9" d="M58.36,49.27l2.17-1.49L53,29.15A19.46,19.46,0,0,0,47.85,32a20.63,20.63,0,0,0-4.22,3.66L58.36,49.27"/><path class="cls-7" d="M60.57,47.73,53.06,29.1a29.18,29.18,0,0,1,4.83-1.41,18.18,18.18,0,0,1,4.88-.45V47.32Z"/><path class="cls-10" d="M40,40.57l17.54,9.79.82-1.13L43.63,35.61S42.46,36.86,41.55,38A16.19,16.19,0,0,0,40,40.57Z"/><path class="cls-10" d="M85.52,66,68,56.23l-.83,1.13L81.89,71s1.17-1.24,2.08-2.42A15.25,15.25,0,0,0,85.52,66Z"/><circle class="cls-11" cx="62.77" cy="53.28" r="6.65"/><circle class="cls-4" cx="62.77" cy="53.28" r="3.14"/></svg>