<svg id="Calque_1" data-name="Calque 1" xmlns="http://www.w3.org/2000/svg" viewBox="0 0 74.76 69.23"><defs><style>.cls-1{fill:silver;}.cls-1,.cls-10,.cls-2,.cls-3,.cls-4,.cls-5,.cls-6,.cls-7,.cls-8,.cls-9{stroke:#000;stroke-linecap:round;stroke-linejoin:round;}.cls-2{fill:#dddede;}.cls-3{fill:#aeafae;}.cls-4{fill:#fff;}.cls-5{fill:#9bff00;}.cls-6{fill:none;}.cls-7{fill:#ff0;}.cls-8{fill:aqua;}.cls-9{fill:#f0f;}.cls-10{fill:#d6d6d6;}</style></defs><title>INTROO</title><rect class="cls-1" x="0.5" y="48.48" width="64.54" height="20.25"/><polygon class="cls-2" points="0.51 48.48 9.72 38.36 74.26 38.36 65.04 48.48 0.51 48.48"/><polygon class="cls-3" points="65.04 68.73 65.04 48.48 74.26 38.36 74.26 58.6 65.04 68.73"/><path class="cls-4" d="M15,55.62H57.28a1.92,1.92,0,0,1,1.92,1.92h0a1.92,1.92,0,0,1-1.92,1.92H15a1.92,1.92,0,0,1-1.92-1.92h0A1.92,1.92,0,0,1,15,55.62Z" transform="translate(-0.29 -0.37)"/><circle class="cls-5" cx="6.9" cy="57.18" r="1.39"/><circle class="cls-2" cx="41.28" cy="26.57" r="26.07"/><line class="cls-6" x1="41.28" y1="20.57" x2="41.28" y2="0.5"/><path class="cls-7" d="M43.8,32.51l7.5,18.63a29,29,0,0,1-4.83,1.41A18.17,18.17,0,0,1,41.6,53V32.93Z" transform="translate(-0.29 -0.37)"/><line class="cls-6" x1="31.38" y1="2.44" x2="38.99" y2="21.02"/><line class="cls-6" x1="36.86" y1="22.52" x2="22.14" y2="8.87"/><path class="cls-8" d="M45.94,31,43.8,32.51l7.5,18.63a19.36,19.36,0,0,0,5.18-2.79,21.33,21.33,0,0,0,4.19-3.69L45.94,31" transform="translate(-0.29 -0.37)"/><path class="cls-8" d="M37.16,22.93l2.17-1.49L31.8,2.81a19.23,19.23,0,0,0-5.15,2.85,20.2,20.2,0,0,0-4.22,3.66L37.16,22.93" transform="translate(-0.29 -0.37)"/><path class="cls-7" d="M39.37,21.39,31.86,2.76a28.76,28.76,0,0,1,4.83-1.41A18.2,18.2,0,0,1,41.57.9V21Z" transform="translate(-0.29 -0.37)"/><path class="cls-9" d="M18.8,14.23,36.34,24l.82-1.13L22.43,9.27s-1.17,1.25-2.08,2.39A14.87,14.87,0,0,0,18.8,14.23Z" transform="translate(-0.29 -0.37)"/><path class="cls-9" d="M64.32,39.66,46.8,29.89,46,31,60.69,44.66s1.17-1.24,2.08-2.42A15.35,15.35,0,0,0,64.32,39.66Z" transform="translate(-0.29 -0.37)"/><circle class="cls-10" cx="41.28" cy="26.57" r="6.65"/><circle class="cls-4" cx="41.28" cy="26.57" r="3.14"/></svg>