<svg id="Calque_1" data-name="Calque 1" xmlns="http://www.w3.org/2000/svg" viewBox="0 0 92.31 59.44"><defs><style>.cls-1{fill:#e3e4e3;stroke:#1d1e1c;stroke-miterlimit:10;}.cls-2{fill:aqua;opacity:0.6;isolation:isolate;}.cls-2,.cls-3,.cls-4,.cls-5{stroke:#000;stroke-linecap:round;stroke-linejoin:round;}.cls-3{fill:#ff0;}.cls-4{fill:#9bff00;}.cls-5{fill:#f0f;}</style></defs><title>LIENN</title><path class="cls-1" d="M92.69,2.83a1.12,1.12,0,0,0-1.1-1.13l-.19,0h-.67c-1.06,0-2.15.1-3.22.2A42.34,42.34,0,0,1,79.63,2c-1.43-.13-2.88-.2-4.28-.26h-.79a1.19,1.19,0,0,0-1.37,1,1.15,1.15,0,0,0,0,.19,3.53,3.53,0,0,0,0,.65c0,1,.38,1.22,1.33,1.37a12.62,12.62,0,0,1,2.56.57A2.88,2.88,0,0,1,79,8.09a8.61,8.61,0,0,1-.84,4.2L65,42.82,63.21,47l-1.5-3.12-8.33-17a.7.7,0,0,1,.06-.28L60.24,14A41.35,41.35,0,0,1,64,8a6.46,6.46,0,0,1,3-2.41,22,22,0,0,1,3.22-.8c.84-.16,1.31-.44,1.43-1.43a3.66,3.66,0,0,0,0-.81,1,1,0,0,0-1-1l-.17,0-1.36.22c-.87,0-1.74.08-2.61.15a46.77,46.77,0,0,1-7,.16c-2-.15-4.07-.27-6.1-.38a1.61,1.61,0,0,0-1.34.46,1.71,1.71,0,0,0-.41,1.44c.09,1,.39,1.27,1.39,1.34a6.91,6.91,0,0,1,2.85.69,2.78,2.78,0,0,1,1.6,2.45,6.7,6.7,0,0,1-.94,3.57q-2.13,4-4.3,8L51,22l-1.21-2.45c-1.38-2.81-2.77-5.62-4.14-8.44a17.66,17.66,0,0,1-1.08-2.68,2,2,0,0,1,.91-2.68A1.87,1.87,0,0,1,46,5.56a14.39,14.39,0,0,1,2.84-.62c.94-.15,1.28-.3,1.35-1.39a3.53,3.53,0,0,0,0-.46c-.08-1.06-.51-1.45-1.55-1.4l-2.72.22c-1.57.1-3.18.21-4.77.24-2.13,0-4.3,0-6.4-.09h-.42c-1,0-2-.09-3.08-.16l-2.14-.16a1.17,1.17,0,0,0-1,.38,1.88,1.88,0,0,0-.24,1.79,1.44,1.44,0,0,0,1.31,1A5.31,5.31,0,0,1,30,5a5.93,5.93,0,0,1,4.43,2.89l.4.67c.63,1.06,1.29,2.16,1.83,3.28q2.82,5.85,5.62,11.71,1.77,3.66,3.55,7.34v.28l-9,16.72-2.3-5.27Q28.13,27.91,21.66,13.11l-.16-.35a25.57,25.57,0,0,1-1.18-3,3.13,3.13,0,0,1,1.32-3.63A6.55,6.55,0,0,1,24.93,5h.2c1-.08,1.24-.39,1.29-1.59a3.45,3.45,0,0,0-.05-.57,1.14,1.14,0,0,0-1.16-1.11l-.14,0h-1c-2,.08-4,.16-6,.27A72,72,0,0,1,8.78,2c-1.68-.13-3.39-.19-5-.25h-1a1.3,1.3,0,0,0-1,.43A1.84,1.84,0,0,0,1.56,4a1.58,1.58,0,0,0,1.3,1c.44,0,.88.11,1.32.19A8.26,8.26,0,0,1,9.91,8.91a28.88,28.88,0,0,1,1.91,3.45q6.36,14.49,12.67,29l4.76,10.9c1,2.22,1.94,4.45,2.9,6.67A1.67,1.67,0,0,0,33.66,60a1.82,1.82,0,0,0,1.7-.85c.07-.12.14-.24.2-.36L48.13,35.91l7.32,15.25c1.24,2.58,2.47,5.15,3.7,7.73A1.82,1.82,0,0,0,60.86,60h0a1.7,1.7,0,0,0,1.62-1.15Q72,37.35,81.58,15.91c1.12-2.53,2.18-4.73,3.24-6.73A7.36,7.36,0,0,1,91,5a1.84,1.84,0,0,0,1.26-.67A2.05,2.05,0,0,0,92.69,2.83Z" transform="translate(-0.9 -1.06)"/><circle class="cls-2" cx="55.05" cy="23.84" r="13.49"/><path class="cls-3" d="M67.24,33.91,86.36,53a2.09,2.09,0,0,1,0,2.95h0a2.11,2.11,0,0,1-3,0l0,0L64.3,36.91" transform="translate(-0.9 -1.06)"/><path class="cls-4" d="M67.24,33.91l4.59,4.6a2,2,0,0,1,0,2.82h0l-.12.12a2,2,0,0,1-2.82,0L64.3,36.91" transform="translate(-0.9 -1.06)"/><path class="cls-5" d="M67.3,13.56a16,16,0,1,0,0,22.69A16,16,0,0,0,67.3,13.56ZM65.13,34.1a13,13,0,1,1,0-18.39h0A13,13,0,0,1,65.13,34.1Z" transform="translate(-0.9 -1.06)"/></svg>