<svg id="Calque_1" data-name="Calque 1" xmlns="http://www.w3.org/2000/svg" viewBox="0 0 117.75 117.38"><defs><style>.cls-1{fill:#e3e4e3;stroke:#1d1e1c;stroke-miterlimit:10;}.cls-2{fill:aqua;opacity:0.6;}.cls-2,.cls-3,.cls-4,.cls-5{stroke:#000;stroke-linecap:round;stroke-linejoin:round;}.cls-3{fill:#ff0;}.cls-4{fill:#9bff00;}.cls-5{fill:#f0f;}</style></defs><title>1.WIKI_ICONES</title><path class="cls-1" d="M105.56,34.92a1.11,1.11,0,0,0-1.29-1.11l-.67,0c-1.06,0-2.15.1-3.22.2a41.71,41.71,0,0,1-7.88.08c-1.43-.13-2.88-.2-4.28-.26l-.79,0A1.19,1.19,0,0,0,86.05,35a3.54,3.54,0,0,0,0,.65c0,1,.38,1.22,1.33,1.37a12.84,12.84,0,0,1,2.56.57,2.88,2.88,0,0,1,1.93,2.59,8.43,8.43,0,0,1-.84,4.2L77.9,74.91l-1.82,4.21L74.58,76l-8.33-17c0-.08,0-.09.06-.28l6.8-12.6a42,42,0,0,1,3.76-6,6.6,6.6,0,0,1,3-2.41,23.3,23.3,0,0,1,3.22-.8c.84-.16,1.31-.44,1.43-1.43a3.64,3.64,0,0,0,0-.81,1,1,0,0,0-1.16-1L82,33.89c-.87,0-1.74.08-2.61.15a45.83,45.83,0,0,1-7,.16c-2-.15-4.07-.27-6.1-.38a1.63,1.63,0,0,0-1.34.46,1.75,1.75,0,0,0-.41,1.44c.09,1,.39,1.27,1.39,1.34a6.94,6.94,0,0,1,2.85.69,2.78,2.78,0,0,1,1.6,2.45,6.61,6.61,0,0,1-.94,3.57q-2.13,4-4.3,8l-1.25,2.3-1.21-2.45c-1.38-2.81-2.77-5.62-4.14-8.44a18.3,18.3,0,0,1-1.08-2.68,2,2,0,0,1,1.43-2.85,14.8,14.8,0,0,1,2.84-.62c.94-.15,1.28-.3,1.35-1.39a3.53,3.53,0,0,0,0-.46c-.08-1.06-.51-1.45-1.55-1.4L58.81,34c-1.57.1-3.18.21-4.77.24-2.13,0-4.3,0-6.4-.09h-.42c-1,0-2-.09-3.08-.16L42,33.83a1.21,1.21,0,0,0-1,.38A1.88,1.88,0,0,0,40.76,36a1.44,1.44,0,0,0,1.31,1c.27,0,.54.07.8.11A5.93,5.93,0,0,1,47.3,40l.4.67c.63,1.06,1.29,2.16,1.83,3.28q2.82,5.85,5.62,11.71Q56.92,59.33,58.7,63c0,.08,0,.11,0,.28L49.69,80l-2.3-5.27Q41,60,34.53,45.2l-.16-.35a27.76,27.76,0,0,1-1.18-3,3.14,3.14,0,0,1,1.32-3.63,6.62,6.62,0,0,1,3.29-1.12H38c1-.08,1.24-.39,1.29-1.59a2.47,2.47,0,0,0-.05-.57,1.13,1.13,0,0,0-1.3-1.09l-1,0c-2,.08-4,.16-6,.27a71.76,71.76,0,0,1-9.29,0c-1.68-.13-3.39-.19-5.05-.25l-1,0a1.35,1.35,0,0,0-1,.43,1.85,1.85,0,0,0-.17,1.8,1.57,1.57,0,0,0,1.3,1c.44.05.88.11,1.32.19A8.25,8.25,0,0,1,22.78,41a28.13,28.13,0,0,1,1.91,3.45q6.36,14.49,12.67,29l4.76,10.9c1,2.22,1.94,4.45,2.9,6.67a1.67,1.67,0,0,0,1.51,1.07,1.78,1.78,0,0,0,1.7-.85c.07-.12.14-.24.2-.36L61,68l7.32,15.25c1.24,2.58,2.47,5.15,3.7,7.73a1.81,1.81,0,0,0,1.71,1.1h0a1.68,1.68,0,0,0,1.62-1.15Q84.91,69.44,94.45,48c1.12-2.53,2.18-4.73,3.24-6.73a7.38,7.38,0,0,1,6.21-4.17,1.8,1.8,0,0,0,1.26-.67A2,2,0,0,0,105.56,34.92Z"/><circle class="cls-2" cx="68.82" cy="57" r="13.49"/><path class="cls-3" d="M80.11,66,99.23,85.12a2.09,2.09,0,0,1,0,2.95h0a2.09,2.09,0,0,1-3,0L77.17,69"/><path class="cls-4" d="M80.11,66,84.7,70.6a2,2,0,0,1,0,2.83l-.12.12a2,2,0,0,1-2.82,0L77.17,69"/><path class="cls-5" d="M80.17,45.65a16,16,0,1,0,0,22.69A16.07,16.07,0,0,0,80.17,45.65ZM78,66.19a13,13,0,1,1,0-18.38A13,13,0,0,1,78,66.19Z"/></svg>