<svg id="Calque_1" data-name="Calque 1" xmlns="http://www.w3.org/2000/svg" viewBox="0 0 84.15 77.76"><defs><style>.cls-1{fill:silver;}.cls-1,.cls-2,.cls-3,.cls-4,.cls-5,.cls-6{stroke:#000;stroke-linecap:round;stroke-linejoin:round;}.cls-2{fill:#dddede;}.cls-3{fill:#aeafae;}.cls-4{fill:aqua;}.cls-5{fill:#fff;}.cls-6{fill:#9bff00;}</style></defs><title>POSTE DE TRAVAILL</title><rect class="cls-1" x="0.5" y="54.43" width="72.76" height="22.83"/><polygon class="cls-2" points="0.5 54.43 10.89 43.02 83.65 43.02 73.25 54.43 0.5 54.43"/><polygon class="cls-3" points="73.25 77.25 73.25 54.43 83.65 43.02 83.65 65.84 73.25 77.25"/><rect class="cls-1" x="13.94" y="11.03" width="47.42" height="41"/><rect class="cls-4" x="19.16" y="15.64" width="36.98" height="31.79"/><polygon class="cls-2" points="13.94 11.03 24.48 0.5 71.9 0.5 61.36 11.03 13.94 11.03"/><polygon class="cls-3" points="61.36 52.03 71.9 42.65 71.9 0.5 61.36 11.03 61.36 52.03"/><rect class="cls-5" x="35.24" y="64.11" width="28.93" height="4.34" rx="2.04" ry="2.04"/><circle class="cls-6" cx="11.35" cy="66.27" r="2.17"/></svg>