<svg id="Calque_1" data-name="Calque 1" xmlns="http://www.w3.org/2000/svg" viewBox="0 0 117.75 117.38"><defs><style>.cls-1{fill:silver;}.cls-1,.cls-2,.cls-3,.cls-4,.cls-5,.cls-6{stroke:#000;stroke-linecap:round;stroke-linejoin:round;}.cls-2{fill:#dddede;}.cls-3{fill:#aeafae;}.cls-4{fill:aqua;}.cls-5{fill:#fff;}.cls-6{fill:#9bff00;}</style></defs><title>1.WIKI_ICONES</title><rect class="cls-1" x="18.3" y="77.9" width="72.76" height="22.83"/><polygon class="cls-2" points="18.3 77.9 28.69 66.49 101.45 66.49 91.05 77.9 18.3 77.9"/><polygon class="cls-3" points="91.05 100.72 91.05 77.9 101.45 66.49 101.45 89.31 91.05 100.72"/><rect class="cls-1" x="31.74" y="34.5" width="47.42" height="41"/><rect class="cls-4" x="36.96" y="39.11" width="36.98" height="31.79"/><polygon class="cls-2" points="31.74 34.5 42.28 23.97 89.7 23.97 79.16 34.5 31.74 34.5"/><polygon class="cls-3" points="79.16 75.5 89.7 66.12 89.7 23.97 79.16 34.5 79.16 75.5"/><rect class="cls-5" x="53.04" y="87.58" width="28.93" height="4.34" rx="2.04" ry="2.04"/><circle class="cls-6" cx="29.15" cy="89.74" r="2.17"/></svg>