<svg id="Calque_1" data-name="Calque 1" xmlns="http://www.w3.org/2000/svg" viewBox="0 0 117.75 117.38"><defs><style>.cls-1{fill:#bdbdbd;}.cls-1,.cls-2,.cls-3,.cls-4{stroke:#000;}.cls-1,.cls-2,.cls-3{stroke-linecap:round;stroke-linejoin:round;}.cls-2{fill:#e3e4e3;}.cls-3{fill:#878788;}.cls-4{fill:#ff0;stroke-miterlimit:10;}</style></defs><title>1.WIKI_ICONES</title><polygon class="cls-1" points="92.41 94.43 24.78 94.43 24.78 26.81 84.62 26.81 92.41 34.59 92.41 94.43"/><rect class="cls-2" x="30.13" y="54.77" width="55.91" height="39.66"/><rect class="cls-3" x="30.13" y="26.81" width="49.6" height="21.43"/><rect class="cls-2" x="37.76" y="26.25" width="41.97" height="21.99"/><rect class="cls-3" x="68.37" y="29.45" width="6.35" height="16.24"/><path class="cls-4" d="M80.88,37.91l-.08-.06a7.81,7.81,0,0,0-1.66-1A24.44,24.44,0,0,0,71.88,35a6.6,6.6,0,0,0-2.07.19,1.9,1.9,0,0,0-.73,3.43,7.83,7.83,0,0,0,1.47.92,19.82,19.82,0,0,1,3.34,2c.81.61,1,1,1,1.39.05.63.07,1.27.07,2V60.47l-.15,0c-.84.23-1.65.44-2.46.61-2.74.58-5.19,1.07-7.48,1.49-1.41.26-2.86.47-4.26.67l-.63.09c-1.73.25-3.06.42-4.31.56-1.92.22-3.49.37-4.93.48-1.64.13-3.24.24-4.83.27s-3.49,0-5.32-.12c-1.13-.06-2.3-.18-3.42-.3L36,64.12a2.15,2.15,0,0,0-2.25,1.11,2,2,0,0,0,.56,2.38,9.65,9.65,0,0,0,1.47,1.12,25.84,25.84,0,0,0,4.85,2.16,15.37,15.37,0,0,0,2.51.63,5.33,5.33,0,0,0,2.57-.39L46,71l.72-.26a11.85,11.85,0,0,1,1.52-.47c1.15-.23,2.34-.41,3.49-.59l1.36-.22.41-.06v8.24c0,.23,0,.46,0,.7s0,.71,0,1.07a22.35,22.35,0,0,0,.16,4.66l0,.11a5.59,5.59,0,0,0,.66,2.14,1.74,1.74,0,0,0,2.46.69A3.17,3.17,0,0,0,58,85.92a8.11,8.11,0,0,0,.79-1.84A34.61,34.61,0,0,0,60,74.64q0-3,0-6L66.87,67l7.86-1.87L75,65.1v3.8c0,4.38,0,8.76,0,13.14,0,1.8.06,3.69.17,5.8a9.92,9.92,0,0,0,.46,2.33A2,2,0,0,0,77,91.64a2.14,2.14,0,0,0,.5.07A2.35,2.35,0,0,0,79,91a2.55,2.55,0,0,0,.65-.85l.12-.25a6.25,6.25,0,0,0,.52-1.33c.23-1.06.52-2.37.68-3.67l0-.4a44.43,44.43,0,0,0,.41-5.08q.06-12.75.07-25.5v-9c0-.28,0-.55,0-.83l0-.29c.08-1.25.15-2.51.24-3.76A2.42,2.42,0,0,0,80.88,37.91Z"/><path class="cls-4" d="M67.25,45.23a13.17,13.17,0,0,0-7.93-4.82,1.84,1.84,0,0,0-1-1.89,6.54,6.54,0,0,0-3.42-1,1.64,1.64,0,0,0-1.45,2.6l.09.13a18.82,18.82,0,0,0-5,1.65c-3.26,1.69-5,4.22-5.3,7.51a9.36,9.36,0,0,0,1.59,6.26,12.46,12.46,0,0,0,6.36,4.62,13.12,13.12,0,0,0,4.39.7c.58,0,1.19,0,1.81-.09A15.73,15.73,0,0,0,64,58.81a9.77,9.77,0,0,0,3.64-3.64,10,10,0,0,0,1.18-4.9A8.4,8.4,0,0,0,67.25,45.23ZM62.16,49a5.62,5.62,0,0,1-.32,3.37,4.69,4.69,0,0,1-2.49,2.36,7.32,7.32,0,0,1-6.73,0,4.77,4.77,0,0,1-.71-8.33A5.34,5.34,0,0,1,55,45.3h.17a10.6,10.6,0,0,1,5,1.08A3.54,3.54,0,0,1,62.16,49Z"/></svg>