<svg id="Calque_1" data-name="Calque 1" xmlns="http://www.w3.org/2000/svg" viewBox="0 0 68.63 69.18"><defs><style>.cls-1{fill:#bdbdbd;}.cls-1,.cls-2,.cls-3,.cls-4{stroke:#000;}.cls-1,.cls-2,.cls-3{stroke-linecap:round;stroke-linejoin:round;}.cls-2{fill:#e3e4e3;}.cls-3{fill:#878788;}.cls-4{fill:#ff0;stroke-miterlimit:10;}</style></defs><title>Q11</title><polygon class="cls-1" points="68.13 68.68 0.5 68.68 0.5 1.06 60.34 1.06 68.13 8.84 68.13 68.68"/><rect class="cls-2" x="5.85" y="29.02" width="55.91" height="39.66"/><rect class="cls-3" x="5.85" y="1.06" width="49.6" height="21.43"/><rect class="cls-2" x="13.48" y="0.5" width="41.97" height="21.99"/><rect class="cls-3" x="44.09" y="3.7" width="6.35" height="16.24"/><path class="cls-4" d="M57.36,12.87l-.08-.06a7.8,7.8,0,0,0-1.66-1A24.33,24.33,0,0,0,48.36,10a6.53,6.53,0,0,0-2.07.19,1.9,1.9,0,0,0-.73,3.43A7.71,7.71,0,0,0,47,14.5a20.94,20.94,0,0,1,3.34,2c.81.61,1,1,1,1.39.05.63.07,1.27.07,2V35.43h-.15c-.84.23-1.65.44-2.46.61-2.74.58-5.19,1.07-7.48,1.49-1.41.26-2.86.47-4.26.67l-.63.09c-1.73.25-3.06.42-4.31.56-1.92.22-3.49.37-4.93.48-1.64.13-3.24.24-4.83.27s-3.49,0-5.32-.12c-1.13-.06-2.3-.18-3.42-.3l-1.17-.1a2.16,2.16,0,0,0-2.25,1.11,2,2,0,0,0,.56,2.38,9.5,9.5,0,0,0,1.47,1.12,26,26,0,0,0,4.85,2.16,15.63,15.63,0,0,0,2.51.63,5.39,5.39,0,0,0,2.57-.39l.29-.13.72-.26a11.15,11.15,0,0,1,1.52-.47c1.15-.23,2.34-.41,3.49-.59l1.36-.22.41-.06v10A22,22,0,0,0,30.14,59v.11a5.56,5.56,0,0,0,.66,2.14,1.74,1.74,0,0,0,2.34.76l.12-.07a3.28,3.28,0,0,0,1.22-1.09A8.31,8.31,0,0,0,35.27,59a35,35,0,0,0,1.21-9.44v-6L43.35,42l7.86-1.87.27,0V57c0,1.8.06,3.69.17,5.8a9.82,9.82,0,0,0,.46,2.33,2,2,0,0,0,1.37,1.47,2.08,2.08,0,0,0,.5.07,2.38,2.38,0,0,0,1.5-.71,2.6,2.6,0,0,0,.65-.85l.12-.25a6.33,6.33,0,0,0,.52-1.33c.23-1.06.52-2.37.68-3.67v-.4a45.37,45.37,0,0,0,.41-5.08q.06-12.75.07-25.5V18.76c.08-1.25.15-2.51.24-3.76A2.42,2.42,0,0,0,57.36,12.87Z" transform="translate(-0.76 -0.71)"/><path class="cls-4" d="M43.73,20.19a13.14,13.14,0,0,0-7.93-4.82,1.85,1.85,0,0,0-1-1.89,6.58,6.58,0,0,0-3.42-1A1.64,1.64,0,0,0,29.62,14a1.62,1.62,0,0,0,.31,1.09l.09.13a18.71,18.71,0,0,0-5,1.65,9,9,0,0,0-5.3,7.51,9.33,9.33,0,0,0,1.59,6.26,12.41,12.41,0,0,0,6.36,4.62,13.1,13.1,0,0,0,4.39.7,12.47,12.47,0,0,0,1.81-.09,15.78,15.78,0,0,0,6.61-2.09,9.78,9.78,0,0,0,3.64-3.64,10.08,10.08,0,0,0,1.18-4.9A8.44,8.44,0,0,0,43.73,20.19ZM38.64,24a5.64,5.64,0,0,1-.32,3.37,4.67,4.67,0,0,1-2.49,2.36,7.33,7.33,0,0,1-6.73,0,4.77,4.77,0,0,1-.71-8.33,5.33,5.33,0,0,1,3.09-1.1h.17a10.69,10.69,0,0,1,5,1.08A3.53,3.53,0,0,1,38.64,24Z" transform="translate(-0.76 -0.71)"/></svg>