<svg id="Calque_1" data-name="Calque 1" xmlns="http://www.w3.org/2000/svg" viewBox="0 0 117.75 117.38"><defs><style>.cls-1{fill:#bdbdbd;}.cls-1,.cls-2,.cls-3,.cls-4{stroke:#000;stroke-linecap:round;stroke-linejoin:round;}.cls-2{fill:#e3e4e3;}.cls-3{fill:#878788;}.cls-4{fill:#9bff00;}</style></defs><title>1.WIKI_ICONES</title><polygon class="cls-1" points="95.22 95.13 27.59 95.13 27.59 27.51 87.43 27.51 95.22 35.3 95.22 95.13"/><rect class="cls-2" x="32.77" y="55.47" width="55.91" height="39.66"/><rect class="cls-3" x="32.94" y="27.51" width="49.6" height="21.43"/><rect class="cls-2" x="40.57" y="26.95" width="41.97" height="21.99"/><rect class="cls-3" x="71.18" y="30.15" width="6.35" height="16.24"/><path class="cls-4" d="M81,80.64l-.13.48a1.64,1.64,0,0,0-.07.28c-.3,2.1-1,2.8-2.93,3-1.31.13-2.67.13-4,.13H68.39c0-1.1.08-1.15,1.21-1.56,8.63-3.15,13.11-10.92,11.7-20.29-.88-5.79-4.17-10.2-9.8-13.08-4-2-8.5-2.71-14.17-2.07-9,1-17.95,8.66-17.23,19.71a16.72,16.72,0,0,0,3.28,9.47,17.43,17.43,0,0,0,9.72,6.63v1.19H45.28a14.28,14.28,0,0,1-2-.16,2.8,2.8,0,0,1-2.57-2.47c-.11-.64-.17-1-.49-1.2s-.68-.14-1.32,0l-.37.08V91.25H56.82v-.66a2.16,2.16,0,0,0,0-.36L56.67,88c-.13-2-.26-3.93-.35-5.9a1.38,1.38,0,0,0-1-1.37,9.53,9.53,0,0,1-5.62-6,26.24,26.24,0,0,1-1.33-10.12,16.73,16.73,0,0,1,2.89-8.89c3-4.28,7.44-6,12.2-4.84A12,12,0,0,1,72,58.62c1.68,4.27,1.9,8.94.67,14.29-.94,4.08-3.09,6.68-6.57,7.93a1.45,1.45,0,0,0-.76,1.1c-.17,1.67-.31,3.34-.45,5l0,.22c-.07.81-.12,1.62-.18,2.44l-.12,1.65H82.89V80.64Z"/></svg>