<svg id="Calque_1" data-name="Calque 1" xmlns="http://www.w3.org/2000/svg" viewBox="0 0 117.75 117.38"><defs><style>.cls-1{fill:#bdbdbd;}.cls-1,.cls-2,.cls-3,.cls-4{stroke:#000;stroke-linecap:round;stroke-linejoin:round;}.cls-2{fill:#e3e4e3;}.cls-3{fill:#878788;}.cls-4{fill:aqua;}</style></defs><title>1.WIKI_ICONES</title><polygon class="cls-1" points="93.38 93.03 25.75 93.03 25.75 25.41 85.59 25.41 93.38 33.2 93.38 93.03"/><rect class="cls-2" x="31.1" y="53.37" width="55.91" height="39.66"/><rect class="cls-3" x="31.1" y="25.41" width="49.6" height="21.43"/><rect class="cls-2" x="38.73" y="24.85" width="41.97" height="21.99"/><rect class="cls-3" x="69.34" y="28.05" width="6.35" height="16.24"/><path class="cls-4" d="M81.72,56l-1.38,0a21,21,0,0,0-3.17.07c-1.9.21-2.88-.25-3.49-1.66a2.71,2.71,0,0,0-.43-.65l-.1-.12c-6.09-7.91-13.28-11.81-22-11.93a17.29,17.29,0,0,0-9.54,2.23,7.81,7.81,0,0,0-3.11,10.69A13.61,13.61,0,0,0,39.38,56h-5v5.55h5.34v.53c0,1.88,0,3.77,0,5.65,0,4.66,0,9.48-.09,14.2a7.62,7.62,0,0,0,2.71,6.57,5.35,5.35,0,0,0,1.16.68c.2.09.41.19.64.32l1.44.75V61.6H69.44V66c-3.75-2.85-8.22-2.72-13.3.4a5.94,5.94,0,0,0-2.81,3.71,6.24,6.24,0,0,0,1,4.73,19.46,19.46,0,0,0,3.53,4,7.83,7.83,0,0,0,8.38,1.45c1.07-.4,2.07-.89,3.14-1.41l.1,0v5.44c0,1.32,2.57,4.63,3.81,4.92a2.39,2.39,0,0,0,.88,0,2.53,2.53,0,0,1,.3,0l.92,0V61.47H82.7V56ZM58.93,72a13.66,13.66,0,0,1,7.52-2.56l.45.13a16.77,16.77,0,0,1,2.12.73c.3.14.49.32.52.5a.71.71,0,0,1-.3.58,19.56,19.56,0,0,1-3.43,2.57A25.07,25.07,0,0,1,61.4,76a2.56,2.56,0,0,1-2.22-.17A2.65,2.65,0,0,1,58,73.92,1.94,1.94,0,0,1,58.93,72Zm-.54-23.9a27.88,27.88,0,0,1,12,7.92h-5q-10.1,0-20.2,0c-.64,0-.71-.13-.8-.41s-.2-.63-.3-.95a11.48,11.48,0,0,1-.57-2.11c-.32-2.52.84-4.23,3.38-5a16.92,16.92,0,0,1,4.69-.65A22.93,22.93,0,0,1,58.39,48.05Z"/></svg>