<svg id="Calque_1" data-name="Calque 1" xmlns="http://www.w3.org/2000/svg" viewBox="0 0 68.63 69.18"><defs><style>.cls-1{fill:#bdbdbd;}.cls-1,.cls-2,.cls-3,.cls-4{stroke:#000;stroke-linecap:round;stroke-linejoin:round;}.cls-2{fill:#e3e4e3;}.cls-3{fill:#878788;}.cls-4{fill:aqua;}</style></defs><title>Q33</title><polygon class="cls-1" points="68.13 68.68 0.5 68.68 0.5 1.06 60.34 1.06 68.13 8.85 68.13 68.68"/><rect class="cls-2" x="5.85" y="29.02" width="55.91" height="39.66"/><rect class="cls-3" x="5.85" y="1.06" width="49.6" height="21.43"/><rect class="cls-2" x="13.48" y="0.5" width="41.97" height="21.99"/><rect class="cls-3" x="44.09" y="3.7" width="6.35" height="16.24"/><path class="cls-4" d="M57.18,32.45H55.8a19.72,19.72,0,0,0-3.17.07c-1.9.21-2.88-.25-3.49-1.66a2.62,2.62,0,0,0-.43-.65l-.1-.12c-6.09-7.91-13.28-11.81-22-11.93a17.2,17.2,0,0,0-9.54,2.23A7.8,7.8,0,0,0,13.9,31l.06.11a13.26,13.26,0,0,0,.88,1.37h-5V38h5.34v6.18c0,4.66,0,9.48-.09,14.2A7.62,7.62,0,0,0,17.8,65a5.35,5.35,0,0,0,1.16.68c.2.09.41.19.64.32L21,66.7V38.05H44.9v4.4c-3.75-2.85-8.22-2.72-13.3.4a5.89,5.89,0,0,0-2.81,3.71,6.21,6.21,0,0,0,1,4.73,19.45,19.45,0,0,0,3.53,4,7.84,7.84,0,0,0,8.38,1.45c1.07-.4,2.07-.89,3.14-1.41h.1v5.44c0,1.32,2.57,4.63,3.81,4.92a2.6,2.6,0,0,0,.88,0h1.22V37.92h7.31V32.45Zm-22.79,16a13.55,13.55,0,0,1,7.52-2.56l.45.13a16.08,16.08,0,0,1,2.12.73c.3.14.49.32.52.5a.72.72,0,0,1-.3.58,19.94,19.94,0,0,1-3.43,2.57,25.6,25.6,0,0,1-4.41,2.05,2.58,2.58,0,0,1-2.22-.17,2.64,2.64,0,0,1-1.18-1.91A1.93,1.93,0,0,1,34.39,48.45Zm-.54-23.9a27.8,27.8,0,0,1,12,7.92H20.65c-.64,0-.71-.13-.8-.41l-.3-1A11.16,11.16,0,0,1,19,29c-.32-2.52.84-4.23,3.38-5a16.5,16.5,0,0,1,4.69-.65,22.51,22.51,0,0,1,6.8,1.15Z" transform="translate(-0.71 -0.8)"/></svg>