<svg id="Calque_1" data-name="Calque 1" xmlns="http://www.w3.org/2000/svg" viewBox="0 0 117.75 117.38"><defs><style>.cls-1{fill:#bdbdbd;}.cls-1,.cls-2,.cls-3{stroke:#000;stroke-linecap:round;stroke-linejoin:round;}.cls-2{fill:#e3e4e3;}.cls-3{fill:#878788;}.cls-4{fill:#f0f;stroke:#1d1e1c;stroke-miterlimit:10;}</style></defs><title>1.WIKI_ICONES</title><polygon class="cls-1" points="94.44 93.03 26.82 93.03 26.82 25.41 86.66 25.41 94.44 33.2 94.44 93.03"/><rect class="cls-2" x="32.17" y="53.37" width="55.91" height="39.66"/><rect class="cls-3" x="32.17" y="25.41" width="49.6" height="21.43"/><rect class="cls-2" x="39.79" y="24.85" width="41.97" height="21.99"/><rect class="cls-3" x="70.41" y="28.05" width="6.35" height="16.24"/><path class="cls-4" d="M73.31,63.69H69.79a1.19,1.19,0,0,0-1.19,1.19v19.6H62.9c2.88-4.79,2.3-12.09-.56-16-3.56-4.86-9.77-6.65-15.83-4.56A13.83,13.83,0,0,0,37.57,78c.49,6.09,4.25,11.19,8.94,12.13l.24,0a1.19,1.19,0,0,0,1-.61L49.22,87a1.15,1.15,0,0,0,.09-.94,1.17,1.17,0,0,0-.62-.72l-1-.5a6.9,6.9,0,0,1-4.22-5.22,15.46,15.46,0,0,1-.15-4.08c.35-3.71,3.18-6.39,7.21-6.82A8,8,0,0,1,58.73,74,9,9,0,0,1,55,84.6a2.64,2.64,0,0,0-1.33,1.63A8.38,8.38,0,0,0,53.57,88c0,.2,0,.39,0,.57a1.2,1.2,0,0,0,1.2,1.2H73.31a1.2,1.2,0,0,0,1.2-1.2V64.88A1.19,1.19,0,0,0,73.31,63.69Z"/><path class="cls-4" d="M82.09,56.89a7.32,7.32,0,0,0-6.74-7.33c-4.38-.49-7.81,1.62-8.94,5.49a11.13,11.13,0,0,0,0,5.39,1.19,1.19,0,0,0,1.17,1h3.32a1.2,1.2,0,0,0,.89-.39,1.16,1.16,0,0,0,.3-.92c0-.32-.07-.63-.11-.94a10,10,0,0,1-.14-1.67,2.21,2.21,0,0,1,2.09-2.19c1.66,0,2.19.41,2.35,2a12.52,12.52,0,0,1,.07,1.46V88.56a1.2,1.2,0,0,0,1.2,1.2h3.3A1.2,1.2,0,0,0,82,88.82l0-.13a1.67,1.67,0,0,0,.08-.52c0-2.57,0-6.79,0-9.44C82.13,71.47,82.14,64,82.09,56.89Z"/></svg>