<svg id="Calque_1" data-name="Calque 1" xmlns="http://www.w3.org/2000/svg" viewBox="0 0 68.62 69.18"><defs><style>.cls-1{fill:#bdbdbd;}.cls-1,.cls-2,.cls-3{stroke:#000;stroke-linecap:round;stroke-linejoin:round;}.cls-2{fill:#e3e4e3;}.cls-3{fill:#878788;}.cls-4{fill:#f0f;stroke:#1d1e1c;stroke-miterlimit:10;}</style></defs><title>Q44</title><polygon class="cls-1" points="68.12 68.68 0.5 68.68 0.5 1.06 60.34 1.06 68.12 8.85 68.12 68.68"/><rect class="cls-2" x="5.85" y="29.02" width="55.91" height="39.66"/><rect class="cls-3" x="5.85" y="1.06" width="49.6" height="21.43"/><rect class="cls-2" x="13.47" y="0.5" width="41.97" height="21.99"/><rect class="cls-3" x="44.09" y="3.7" width="6.35" height="16.24"/><path class="cls-4" d="M46.78,39.24H43.26a1.19,1.19,0,0,0-1.19,1.19h0V60h-5.7c2.88-4.79,2.3-12.09-.56-16C32.25,39.17,26,37.38,20,39.47A13.83,13.83,0,0,0,11,53.55c.49,6.09,4.25,11.19,8.94,12.13h.24a1.21,1.21,0,0,0,1-.61l1.47-2.52a1.11,1.11,0,0,0,.09-.94,1.14,1.14,0,0,0-.62-.72l-1-.5a6.93,6.93,0,0,1-4.22-5.22,15.5,15.5,0,0,1-.15-4.08C17.14,47.38,20,44.7,24,44.27a8,8,0,0,1,8.2,5.28,9,9,0,0,1-3.73,10.6,2.62,2.62,0,0,0-1.33,1.63,9.46,9.46,0,0,0-.1,1.77v.57a1.2,1.2,0,0,0,1.2,1.2H46.78a1.2,1.2,0,0,0,1.2-1.2V40.43a1.19,1.19,0,0,0-1.19-1.19Z" transform="translate(0.21 0.1)"/><path class="cls-4" d="M55.56,32.44a7.31,7.31,0,0,0-6.74-7.33c-4.38-.49-7.81,1.62-8.94,5.49a11.17,11.17,0,0,0,0,5.39,1.21,1.21,0,0,0,1.17,1h3.32a1.19,1.19,0,0,0,.89-.39,1.16,1.16,0,0,0,.3-.92,7.31,7.31,0,0,0-.11-.94,10.46,10.46,0,0,1-.14-1.67,2.21,2.21,0,0,1,2.09-2.19c1.66,0,2.19.41,2.35,2a10.13,10.13,0,0,1,.07,1.46V64.11a1.2,1.2,0,0,0,1.2,1.2h3.3a1.2,1.2,0,0,0,1.15-.94v-.13a1.35,1.35,0,0,0,.08-.52V54.28C55.6,47,55.61,39.55,55.56,32.44Z" transform="translate(0.21 0.1)"/></svg>