<svg id="Calque_1" data-name="Calque 1" xmlns="http://www.w3.org/2000/svg" viewBox="0 0 59.61 59.43"><defs><style>.cls-1{fill:#afafaf;}.cls-1,.cls-2,.cls-3{stroke:#000;stroke-linecap:round;stroke-linejoin:round;}.cls-2{fill:#dfdfdf;}.cls-3{fill:#0f3;}</style></defs><title>SOUNDS</title><polygon class="cls-1" points="11.21 20.67 3.77 24.18 4.99 34.57 11.21 38.88 38.27 58.59 38.27 0.84 11.21 20.67"/><ellipse class="cls-2" cx="39.63" cy="29.72" rx="8.89" ry="29.22"/><path class="cls-2" d="M2.74,38.33S.65,35.71.65,30s2.09-8.22,2.09-8.22L11.36,21A18.23,18.23,0,0,0,9.27,30a18.93,18.93,0,0,0,2.09,9.15Z" transform="translate(-0.15 -0.29)"/><rect class="cls-3" x="41.71" y="27.68" width="17.39" height="4.08" rx="2.04" ry="2.04"/><rect class="cls-3" x="40.22" y="7.79" width="16.37" height="4.08" rx="2.04" ry="2.04" transform="translate(-0.37 18.17) rotate(-21.54)"/><rect class="cls-3" x="40.22" y="48.14" width="16.37" height="4.08" rx="2.04" ry="2.04" transform="translate(21.65 -14.55) rotate(21.54)"/></svg>