<svg id="Calque_1" data-name="Calque 1" xmlns="http://www.w3.org/2000/svg" viewBox="0 0 52.57 53.05"><defs><style>.cls-1{fill:#f0f;stroke:#000;stroke-miterlimit:10;}</style></defs><title>SOURCES</title><path class="cls-1" d="M36.76,18c-1.36,0-2-1.14-1.55-2.12a2.15,2.15,0,0,1,.38-.53c2.66-2.66,5.31-5.32,8-8,.21-.21.51-.49.76-.49a2.19,2.19,0,0,1,1.43.36,2.56,2.56,0,0,1,.36,1.5c0,.25-.29.54-.5.75q-3.91,3.95-7.85,7.84A5.13,5.13,0,0,1,36.76,18Z" transform="translate(-0.21 -0.18)"/><path class="cls-1" d="M44.9,24.28H39.49c-1.16,0-1.79-.5-1.82-1.4s.6-1.55,1.79-1.55c3.66,0,7.33,0,11,0,1.2,0,1.85.58,1.83,1.52s-.66,1.44-1.89,1.44Z" transform="translate(-0.21 -0.18)"/><path class="cls-1" d="M28.7,8c0-1.89,0-3.78,0-5.68a1.46,1.46,0,0,1,2-1.49,1.58,1.58,0,0,1,.93,1.67v6c0,1.68,0,3.36,0,5,0,1.15-.56,1.78-1.47,1.78s-1.45-.64-1.46-1.77c0-1.86,0-3.72,0-5.59Z" transform="translate(-0.21 -0.18)"/><path class="cls-1" d="M44.2,39.14c-1.1-1.19-2.26-2.34-3.39-3.45l-1.31-1.3L38.41,33.3c-1-1-2-2-3-3a8.11,8.11,0,0,0-9.26-1.05l-.63.46c-.58-.59-1.16-1.17-1.75-1.75l.58-.9a1.47,1.47,0,0,0,.09-.17,8.14,8.14,0,0,0-1.65-9.25c-2.38-2.41-5-5-8.11-8.11a7.8,7.8,0,0,0-7-2.34,7.71,7.71,0,0,0-6.39,5.12,7.57,7.57,0,0,0,1.52,8.24c3.08,3.26,6.23,6.34,8.9,8.91A7.56,7.56,0,0,0,17,31.56a8.31,8.31,0,0,0,3.86-.95l.77-.46,1.69,1.7a5.13,5.13,0,0,0-.89,1.59,7.93,7.93,0,0,0,1.86,8.7c2.63,2.69,5.34,5.38,8,8l.12.12a7.94,7.94,0,0,0,5.67,2.44,8.43,8.43,0,0,0,1.71-.18A8.09,8.09,0,0,0,44.2,39.14ZM21.88,25.2a3,3,0,0,1-.25.67l-6.27-6.28a2.64,2.64,0,0,0-.57-.45h0a1.43,1.43,0,0,0-1.76.25,1.45,1.45,0,0,0-.25,1.78,2.8,2.8,0,0,0,.48.58L19.52,28a4.34,4.34,0,0,1-.64.22A5.23,5.23,0,0,1,13.46,27c-.55-.52-1.08-1.06-1.66-1.64l-.7-.71c-.6-.61-1.21-1.21-1.85-1.83-1.37-1.36-2.8-2.77-4.13-4.2a4.76,4.76,0,0,1-.9-5.46,5,5,0,0,1,4.63-3,5.18,5.18,0,0,1,3.62,1.51c2.09,2,4.19,4.16,6.22,6.21l1.94,1.95a5.14,5.14,0,0,1,1.25,5.4ZM43.36,45a5.14,5.14,0,0,1-2,3.67,5.08,5.08,0,0,1-6.78-.52c-1.65-1.63-3.29-3.28-4.94-4.93l-3-3a5.15,5.15,0,0,1-1.42-5.61,3.52,3.52,0,0,1,.18-.32c0-.09.09-.16.13-.25l4.79,4.79a3.17,3.17,0,0,0,.57.47,1.54,1.54,0,0,0,.75.21,1.42,1.42,0,0,0,.72-.2,1.65,1.65,0,0,0,.77-1.48V37.6L33,37.33a3.24,3.24,0,0,0-.43-.56q-2.41-2.43-4.85-4.85l.07,0c.26-.13.53-.26.65-.3a4.63,4.63,0,0,1,4.84.91c3.49,3.31,6.32,6.14,8.92,8.91A4.6,4.6,0,0,1,43.36,45Z" transform="translate(-0.21 -0.18)"/></svg>