<svg id="Calque_1" data-name="Calque 1" xmlns="http://www.w3.org/2000/svg" viewBox="0 0 78.77 71.49"><defs><style>.cls-1{fill:#bcbcbc;}.cls-2{fill:#fff;}</style></defs><title>WIKIPEDIA</title><path d="M79.45,35c-.21,1.62-.34,3.24-.62,4.84A38.56,38.56,0,0,1,66.44,62.31,38.06,38.06,0,0,1,45.92,72a38.38,38.38,0,0,1-25.36-4.7A38.76,38.76,0,0,1,2.14,43.71a38.46,38.46,0,0,1-1-16.8,38.12,38.12,0,0,1,5-13.85c.11-.19.24-.45.42-.52.83-.31,1.11-1.08,1.58-1.7.3-.39.74-.67,1.08-1a13.79,13.79,0,0,0,1.15-1.38,13.76,13.76,0,0,1,.78-1.36A10.16,10.16,0,0,1,14.41,4.4a8.39,8.39,0,0,0,2.05-1.78,3.87,3.87,0,0,1,2.31-1.25c.15,0,.37,0,.44,0,.53.67,1.08.2,1.64.09.29-.06.77-.08.89.08.29.41.69,1,.56,1.39a12,12,0,0,1-1.53,2.73c-.29.41-.88.6-1.38.92.82,1,.17,2.06-.3,3.11s-1.09,2.2-1.62,3.31a5.34,5.34,0,0,0-.21.81c2.47.41,3.06,2.3,1.55,4.89a9.48,9.48,0,0,0,5.71-1.62,1.37,1.37,0,0,0-.15-.21c-.92-1.05-.86-1.56.39-2.24a7.94,7.94,0,0,1,2-.76c1.2-.28,2,.45,1.82,1.76A70.94,70.94,0,0,0,38.12,13c-.53-.95-1-1-1.72-.26a4,4,0,0,1-1.37.92,1.38,1.38,0,0,1-2-1.08c-.3-1.35-.5-2.72-.75-4.08-.1-.57.32-.6.7-.69l4.11-1c0-.28,0-.43-.07-.57a2.31,2.31,0,0,1,2.24-2.91,7.38,7.38,0,0,1,1.15,0c1.77,0,2,.2,2.13,2.07a9.39,9.39,0,0,0,1.84-.15c3-.82,5.9-1.72,8.85-2.56a11.28,11.28,0,0,1,1.66-.28,2.14,2.14,0,0,1,2.2.85c.37-2,2.07-1.86,3.42-2.21.23-.06.58.17.82.35.59.41,1.14.88,1.71,1.31a6.47,6.47,0,0,0,2.1,1.14,4.39,4.39,0,0,1,2.92,2.83,4.15,4.15,0,0,0,.65,1c.47.6,1,1.18,1.46,1.76.87-.33,1.15-.24,1.72.56A39.06,39.06,0,0,1,79.3,30a10.58,10.58,0,0,0,.15,1.13ZM60.58,64.84l-.42.74c1.77-.37,7-4.55,7.54-6-1.17.69-2.36,1.29-3.42,2.06-.45.33-.65,1-1,1.53a2.26,2.26,0,0,1-.37.39l.45-1.43c-.85.39-1.62.81-2.44,1.11a4.21,4.21,0,0,1-2.51.61l.73-1.23A11.38,11.38,0,0,0,55,64.28l.84.57c-2.08,1.66-4.66,1.47-6.81,2.23-.17.41-.34.75-.45,1.11s-.17.56-.07.68a.86.86,0,0,0,.68.12c.74-.19,1.47-.45,2.21-.64a5.47,5.47,0,0,1,1-.08l.06.24c-.65.92-1.7,1-2.69,1.18l2-.78-.1-.33c-.3,0-.6.08-.89.15a21.13,21.13,0,0,1-2.45.56c-.72.08-.89-.33-.56-1a11.21,11.21,0,0,0,.4-1.06c-1.58.47-2.94.93-4.32,1.27s-2.8.57-4.2.85v.1l1.61.31V70L40,70.51c.8.26,1.75-.21,2.51.79a4.54,4.54,0,0,0-1.5-.57,3.78,3.78,0,0,0-1.26.51l-.46-.36c-.54-.46-1.18-.08-1.76-.19s-1.23.16-1.41-.69c0-.07-.32-.13-.48-.13-1.61,0-3.23-.07-4.84-.07-.17,0-.35.19-.52.29.12.16.21.43.37.47a17.8,17.8,0,0,0,1.8.31,21.77,21.77,0,0,1,2.57.36,19.82,19.82,0,0,0,6.69.41c1.12-.07,2.23-.17,3.35-.3s2.28-.33,3.43-.49l0-.22a4,4,0,0,1-.5-.1c-.18-.06-.35-.15-.56-.24a3.14,3.14,0,0,1,2.42-.61l-1.48.38a.84.84,0,0,0,.66.35,23.52,23.52,0,0,0,2.89-.6,34.51,34.51,0,0,0,7.78-3.54C59.52,65.42,60.11,65.17,60.58,64.84ZM16.06,4.24a7.55,7.55,0,0,1-1.35.87A9.17,9.17,0,0,0,11.5,7.79a1.12,1.12,0,0,0-.31.52,3.11,3.11,0,0,1-1.81,2.26A1.21,1.21,0,0,0,9,11c-.42.63-.81,1.28-1.22,1.93,1.34.34,2,0,2.47-1.19A3,3,0,0,1,11.8,10a2.47,2.47,0,0,1,.94,0,2.84,2.84,0,0,1-.11.84,16.9,16.9,0,0,1-.82,1.51l.12.17a6.09,6.09,0,0,1,1.51-.42c2.59,0,3.41-1.9,4.19-3.85.19-.48.31-1,.47-1.48l-.18-.12a7.26,7.26,0,0,1-.89.51.94.94,0,0,1-.7,0c-.11-.07-.13-.43-.09-.63a2.7,2.7,0,0,1,2.48-1.93.82.82,0,0,0,.59-.22c.4-.54.73-1.12,1.09-1.69l-.15-.18-2.89.81.48-.73-.12-.1L16,4.25Zm.14,58.48c1.35.49,2.89,2.08,2.55,2.62,4,2.61,7.69,4.36,10.48,4-1.6-1-3.13-2-4.68-3a.71.71,0,0,0-.57,0,2.4,2.4,0,0,1-2.88-.68,6.87,6.87,0,0,0,1.11.5,1,1,0,0,0,.78,0,1.32,1.32,0,0,1,1.64,0c1.67,1,3.33,2.1,5,3.13a2.08,2.08,0,0,0,1,.33c1.69.06,3.38.06,5.07.13.49,0,1.13-.11,1.27.67,0,.1.3.22.44.21,1-.12,2-.27,3-.41V70l-1.57-.42v-.33A38.09,38.09,0,0,0,48,66.81c-.25-.5-.49-.94-.71-1.4a1,1,0,0,0-1.43-.59,20.69,20.69,0,0,1-2.91,1,9.09,9.09,0,0,1-2.85.17,1.64,1.64,0,0,1-1.26-1.72A1.45,1.45,0,0,1,40,62.89a19.73,19.73,0,0,1,2-.47,27.36,27.36,0,0,0,3.15-.6c.47-.16.79-.77,1.17-1.18a5,5,0,0,0-1.09-.93,4.35,4.35,0,0,1-2.35-2.09c-.23-.52-.53-.71-1.06-.58-2.58.62-5.17,1.22-7.74,1.88a4.46,4.46,0,0,0-1.17.77c.31.31.63.6.91.93s.64.66.61,1-.46.68-.79.79a10.69,10.69,0,0,1-6.5.13c-1.16-.35-1.39-1-1-2.15.31-.92.23-1-.76-1.12-.39,0-.77,0-1.16,0l-6.06-.34c-.43,0-.86-.08-1.51-.15l4.36,5.18-.18.19-1.57-.32L19.2,64l1.92,1.66a5.18,5.18,0,0,1-2.56-2.12l.09-.27,1.69.31c-1.36-1.62-2.69-3.21-4-4.78a1.5,1.5,0,0,0-.68-.29c-.84-.24-1.7-.42-2.5-.72s-1.61-.71-1.73-1.6a3,3,0,0,0-1.4-2,6.65,6.65,0,0,0-1.16-.59l.11,1.13a7.1,7.1,0,0,1-.67-1.24c-.15-.48.19-.76.59-.51,1.3.81,2.62,1.64,3,3.32a1.15,1.15,0,0,0,.52.73c1.07.39,2.17.69,3.35,1.06-.44-1.13-.87-2.08-1.19-3.07A1.57,1.57,0,0,1,15,53.17c.56-.47,1.14-.27,1.73-.05a11.08,11.08,0,0,0,1.82.6.91.91,0,0,0,1.19-1.07,3.57,3.57,0,0,0-1.55-2.79,1.15,1.15,0,0,0-1,0,2.61,2.61,0,0,1-3.91-1.11,7.72,7.72,0,0,1-.58-4.81,8.31,8.31,0,0,1-1.42,0,17.3,17.3,0,0,1-3-.69A3.09,3.09,0,0,1,6,39.38,1.87,1.87,0,0,0,4.41,37c-.79-.2-1,0-.93.84.06.46.19.91.21,1.37a3.28,3.28,0,0,1-.2.85,5.28,5.28,0,0,1-.81-.33,6,6,0,0,1-.7-.64l-.24.11c.7,2.44,1.28,4.93,2.14,7.32a15.13,15.13,0,0,1,1,2.62.37.37,0,0,0,.07.14c.75,1.4,1.44,2.83,2.27,4.18a11.07,11.07,0,0,0,1.57,1.65L9,55c0-.1,0-.2,0-.29l.65.86-.17.15-.84-.41-.19.18c1.49,1.69,3,3.38,4.47,5,.05.06.19.05.28.06.52.56,1,1.15,1.55,1.67a21.37,21.37,0,0,0,1.72,1.43c.57.44,1.18.82,1.77,1.22l.16-.22ZM3.91,21.14c-.29.32,0,1.15-.85,1,0,0-.09.16-.11.25-.24.94-.47,1.87-.71,2.8l1,.43c1.36.6,2.28,0,2.38-1.49,0-.53.06-1.07.14-1.6a1.58,1.58,0,0,1,1.89-1.15c.6.18.79.82.45,1.68-.15.4-.37.78-.53,1.19-.28.7,0,1.24.72,1.24,1.36,0,2.73-.15,4.17-.25-.08-.71-.14-1.22-.17-1.72a7,7,0,0,1,1.23-4.73,1.94,1.94,0,0,1,2.22-1,1.5,1.5,0,0,0,1.83-.57,2.25,2.25,0,0,0,0-2.5c-.7,0-1.62.54-2-.31a6.1,6.1,0,0,1-.06-2.28c-1,.24-2,.51-3,.72a3.75,3.75,0,0,1-1,0,4.68,4.68,0,0,1,.22-1,13.3,13.3,0,0,1,.79-1.3,1.48,1.48,0,0,0-1.93,1.1c-.69,1.71-1.39,2.14-3.21,2a1,1,0,0,0-.8.38c-.64,1.17-1.25,2.35-1.77,3.57a6.48,6.48,0,0,0-.27,1.67l-.28-.6-1,2.66.27.15ZM77,39.81a6.91,6.91,0,0,1,.11.9,4.14,4.14,0,0,1-1.38,3.65c-.5.38-.82.24-.85-.39a12.22,12.22,0,0,1,.06-1.46c-1.33,1.29-2.78,2.68-4.21,4.1a1.07,1.07,0,0,0-.18.61,18.47,18.47,0,0,1-.35,3.25c-.59,2.06-1.6,3.82-4.15,3.81a1.09,1.09,0,0,0-.3.07,2,2,0,0,0-1.43,2.23c.1.52.44.73.9.52s1.16-.64,1.73-1l1.2-.68.16.19c-.64,2.11-2.52,3.43-3.59,5.27a13.59,13.59,0,0,0,7.53-6.69l-.26.14-.39.14C72.26,53,73.84,52,73.76,50l-1.58,1.24a3.22,3.22,0,0,1,2.44-2.07l-.87,2.58c2.25-3.38,5-12.26,4.51-14.48-.18.32-.33.58-.47.85-.29.55-.56,1.11-.85,1.67L78.11,37c.09-.21.29-.39.31-.6.14-1.34.24-2.68.36-4l-.32.09a2.9,2.9,0,0,1-.51-.94c-.16-1.19-.26-2.39-.31-3.59,0-.23.24-.47.48-.89-.22-1.09-.47-2.41-.76-3.72,0-.11-.32-.26-.45-.22a5.06,5.06,0,0,0-1.27.52c-.75.47-.71.81-.41,1.65a11.85,11.85,0,0,1,.62,2.88,1.74,1.74,0,0,1-.94,1.65c-1,.58-1.55.36-1.77-.73-.11-.61-.19-1.22-.31-1.82-.27-1.31-.76-1.49-1.79-.62a36.87,36.87,0,0,1-5.93,4.62.61.61,0,0,0-.2.54c.49,1.27,1,2.54,1.54,3.76a1.14,1.14,0,0,0,2,0c.16-.26.28-.55.44-.81a1.49,1.49,0,0,1,1.55-.9,1.47,1.47,0,0,1,1.37,1.26A9.51,9.51,0,0,1,72,37.84c-.2,1.49-.83,1.95-2.36,2-1,0-1.41.3-1.48,1.28a5.28,5.28,0,0,0,2.18,5.14c.86-.79,1.76-1.54,2.59-2.38s1.51-1.71,2.26-2.57l.17.11-.17,2.41a2.32,2.32,0,0,0,1.68-2.52A9.33,9.33,0,0,1,77,39.81Zm-3.7-25.46c0-.14.2-.34.14-.43-.55-1-1.14-2-1.72-2.93a.29.29,0,0,0-.26,0,.26.26,0,0,0-.11.24,3.49,3.49,0,0,0,.23.48c-.39-.53-.85-.44-1.39-.23-.84.33-1.7.58-2.62.87.41.5.77.88,1.06,1.3a1.25,1.25,0,0,1-.37,1.86,2.52,2.52,0,0,1-3.76-1.32c-.3-1-.44-1.15-1.41-.67-1.85.9-3.65,1.9-5.41,2.83a16.37,16.37,0,0,1,1.42,2.56c.69,2,.33,2.46-1.8,2.57a.75.75,0,0,1-.15,0,.9.9,0,0,0-1,1.05,6.75,6.75,0,0,0,.62,2.18c.62,1.23,1.25,1.4,2.42.68a2.84,2.84,0,0,0,.9-1.16c.35-.69.75-1,1.46-.71a2,2,0,0,1,1,.83A33.91,33.91,0,0,1,64.19,28a20.53,20.53,0,0,1,.56,2.69l5-3.88c.51-.39,1-.84,1.51-1.19.71-.49,1.21-.39,1.55.38a17.47,17.47,0,0,1,.68,2.27c.1.35.21.7.32,1.05.42-.16.94-.2,1.23-.49a1.87,1.87,0,0,0,.52-1.28,6.83,6.83,0,0,0-.64-2.09c-.47-1-.47-1.73.26-2.37a4,4,0,0,1,1.14-.58c.55-.22.86-.49.6-1.15-.36-.88-.63-1.79-1-2.67-.13-.3-.48-.5-.59-.8-.41-1.05-.76-2.13-1.18-3.32l-.37.55ZM64.11,31.84c-1.14.52-2.24,1.08-3.38,1.52s-2.6,1-3.93,1.32a4,4,0,0,1-1.44-.15,12.74,12.74,0,0,1,.2-1.38,8.18,8.18,0,0,1,.39-.92c.22-.58,0-1-.62-1a4.16,4.16,0,0,0-1.21.13c-1.71.36-3.41.76-4.65,2.15-.44.48-.47.86.16,1.2a6.25,6.25,0,0,1,1.2.83,1.53,1.53,0,0,1-.1,2.36,5.6,5.6,0,0,1-.76.51,16.18,16.18,0,0,1-7.67,2.23c-.75.06-1.85-.09-2.16.32s-.12,1.52-.08,2.31a5.85,5.85,0,0,0,1,3.33c.35.45.72.66,1.23.32a18.94,18.94,0,0,0,2.35-1.69,2.65,2.65,0,0,1,4.44,1.08,7.89,7.89,0,0,1,.12,3c-.13,1.07-.94,1.52-2,1.39a17.15,17.15,0,0,0-1.76-.13,3.28,3.28,0,0,0-3,2.11c-.59,1.24.06,2.33.69,3.37a.59.59,0,0,0,.45.2A29.42,29.42,0,0,0,51.7,55c1.15-.39,2.24-.94,3.35-1.42l0-.25c-.4-.22-.81-.41-1.19-.64-.72-.43-.91-1-.44-1.67a5.06,5.06,0,0,1,1.34-1.35,12.9,12.9,0,0,1,5-2c1.58-.27,2.17.43,1.68,2-.16.49-.37,1-.62,1.63,3.9,0,6.16-2.68,8.95-4.61-1.78-1.31-2-3.12-2.06-5,0-1.53.37-2.83,2.63-2.75a1.3,1.3,0,0,0,1-.6,3.47,3.47,0,0,0,0-3.05,1.33,1.33,0,0,0-.93-.62,1.57,1.57,0,0,0-.94.44,1.73,1.73,0,0,0-.39.66,1.71,1.71,0,0,1-3.27-.08Zm-24,8,1.63-.08a14.66,14.66,0,0,0,7.41-1.95c.49-.31,1.15-.7,1.27-1.18.19-.71-.67-.9-1.17-1.21C48.21,34.78,48,33.9,48.85,33c1.76-1.94,4.12-2.48,6.6-2.52a1.33,1.33,0,0,1,1.24,1.8A16.73,16.73,0,0,1,56,34.18a7.18,7.18,0,0,0,1.13-.28q3.24-1.38,6.47-2.83a.86.86,0,0,0,.35-.69A10.55,10.55,0,0,0,62.21,25c-.23-.37-.4-1-1-.77a1.55,1.55,0,0,0-.71.83,2.43,2.43,0,0,1-3.73.93,4.58,4.58,0,0,1-1.44-3.9,1.39,1.39,0,0,1,1.39-1.37A10.18,10.18,0,0,1,58,20.66c.57,0,.87-.29.63-.83-.42-1-.91-1.92-1.4-2.87-.21-.41-.55-.42-1-.25a23.64,23.64,0,0,1-2.33.79,27.42,27.42,0,0,1-3.42.82c-2,.28-2.67-.5-2-2.41.17-.55,0-.8-.5-.85A7.08,7.08,0,0,0,43,16.37a.64.64,0,0,0,0,1.18,5.64,5.64,0,0,0,1.34.55c1,.31,1.31,1,.73,1.86a2.2,2.2,0,0,1-1,.86,34.18,34.18,0,0,1-3.47.95c-1.44.31-2.91.54-4.39.81.23.81.45,1.54.63,2.29a19.09,19.09,0,0,1,.46,2.25,2.06,2.06,0,0,1-2.53,2.39c-.49-.07-1-.24-1.44-.27a1.86,1.86,0,0,0-1.86.64A4.36,4.36,0,0,0,31.87,34c.54.54,1,.54,1.49,0a3.06,3.06,0,0,1,4.17-.68,4.72,4.72,0,0,1,2.19,3.2C39.93,37.62,40,38.71,40.15,39.87ZM13.51,43l4.6-.47c1.45-.16,2.87-.21,4.05.89.93.85,1,1.54,0,2.37a.67.67,0,0,0,0,1.16,1.68,1.68,0,0,0,1.1.4,46.78,46.78,0,0,0,4.71-1c.94-.26.93-.63.19-1.32l-.57-.52c-1-1-.95-1.63.37-2.06q3.28-1.06,6.64-1.86c1.48-.35,3-.47,4.51-.69a20,20,0,0,0,0-2.33,4.49,4.49,0,0,0-2-3.49,2.26,2.26,0,0,0-3.08.41c-.94,1.1-2.05,1-2.94-.17a5,5,0,0,1-.76-3.45,2.42,2.42,0,0,1,2.54-2.44,12.21,12.21,0,0,1,2,.25c.92.14,1.79-.44,1.64-1.2-.32-1.6-.73-3.18-1.15-5-3,.65-5.85,1.26-8.71,1.91a3.28,3.28,0,0,0-.88.57c1.13,1,1.34,1.95.68,2.75a6,6,0,0,1-5.66,1.52c-1.61-.57-1.93-1.91-.76-3.17l.56-.63-.11-.31-7.28.47c0,.8,0,1.38,0,2A25.76,25.76,0,0,1,13,30.63c-.26,1.57-1,1.91-2.38,1.33-.55-.22-1.13-.17-1.28.42a6.58,6.58,0,0,0-.2,2.41c.17,1.15.65,1.27,1.61.59s1.42-.43,1.82.51A5.14,5.14,0,0,1,13,37.36C13.16,39.19,13.32,41,13.51,43Zm14.09.6c.39.35.78.67,1.14,1,1.07,1.06.9,2.08-.54,2.54a23.08,23.08,0,0,1-4.18,1,3.6,3.6,0,0,1-2.09-.54,1.47,1.47,0,0,1-.32-2.4c.71-.68.69-1-.17-1.52a2,2,0,0,0-1.07-.33q-3.33.2-6.66.5c-.16,0-.37.31-.42.52a6.9,6.9,0,0,0,.34,4.06,2,2,0,0,0,2.82,1,1.65,1.65,0,0,1,2.43.32,4.93,4.93,0,0,1,1.53,2.94c.14,1.22-.57,1.94-1.79,1.71-.67-.13-1.3-.46-2-.6a1.62,1.62,0,0,0-1.18.14,1.61,1.61,0,0,0-.4,1.12,4.2,4.2,0,0,0,.32,1.09,2.64,2.64,0,0,0,3,2.23c2.43,0,4.86.26,7.29.43,1.25.1,1.64.74,1.19,1.87s-.19,1.47.93,1.66A11.65,11.65,0,0,0,32.73,62,7,7,0,0,0,34,61.42l-1-.68c-1.18-.85-1.18-1.62.19-2.14,1.84-.69,3.75-1.2,5.64-1.7,1.1-.29,2.24-.43,3.42-.65-.24-.46-.46-.83-.65-1.22a3,3,0,0,1,0-2.81,4.32,4.32,0,0,1,4.41-2.47,10.42,10.42,0,0,1,1.37.14.8.8,0,0,0,1.07-.78,9,9,0,0,0,0-2.14,1.88,1.88,0,0,0-1.31-1.66A2.21,2.21,0,0,0,45,46a14,14,0,0,1-2.26,1.56,1.58,1.58,0,0,1-2.42-.66,10.14,10.14,0,0,1-1-2.78,26,26,0,0,1-.24-3.19C36.72,40.73,30,42.28,27.6,43.56ZM59.19,63.48a.86.86,0,0,0,.33,0c1.41-.62,2.81-1.24,4.2-1.88.15-.07.24-.26.36-.39.73-.93,1.47-1.84,2.18-2.78.55-.71,1.06-1.45,1.58-2.18l-.2-.19c-.36.26-.71.54-1.1.77a11.32,11.32,0,0,1-1.61.86c-.77.3-1.17,0-1.18-.85a3,3,0,0,1,2.78-3.2,4.58,4.58,0,0,0,1.47-.4c1.56-.83,2.6-4.23,1.82-5.91l-.62.44c-1.36,1-2.69,2.05-4.08,3A7.39,7.39,0,0,1,61.46,52c-1.13.09-1.46-.37-1.11-1.43.11-.34.24-.68.35-1,.34-1,.06-1.47-1-1.15A25.64,25.64,0,0,0,55,50.34c-1.46.82-1.52,1.64,0,2.26l.07,0c.65.4.71.83.12,1.33a6.09,6.09,0,0,1-1.23.78,20.42,20.42,0,0,1-6.64,1.81c-1.25.15-2.51.25-3.92.39a5.27,5.27,0,0,0,.82,1.15c.69.52,1.44,1,2.18,1.41s1,1.21.37,1.83a4.86,4.86,0,0,1-2.05,1.2c-1.28.34-2.63.4-3.93.65-.95.18-1.25.57-1.15,1.23a1.39,1.39,0,0,0,1.6,1.3,10.25,10.25,0,0,0,1.78-.43c1.08-.31,2.14-.69,3.22-1a1.47,1.47,0,0,1,1.85.85c.25.52.53,1,.81,1.59l6.23-1.5c-.82-.73-.86-1-.15-1.36,1.21-.59,2.48-1.07,3.73-1.55a3.93,3.93,0,0,1,1.17,0ZM56.23,16c-.27-.36-.38-.53-.51-.68-1-1.22-2-2.43-2.94-3.66a1.49,1.49,0,0,1-.07-1.79,1.33,1.33,0,0,1,1.48-.56c.18,0,.36.13.53.11.33,0,.8-.06,1-.27a1.42,1.42,0,0,0,.08-1.06,4,4,0,0,0-.61-1.06c-.5-.73-.87-.79-1.59-.3a2.39,2.39,0,0,1-3.41-.44,18.23,18.23,0,0,1-1.08-1.57s-.06,0-.08,0c-1.13.32-2.25.69-3.4,1a14.76,14.76,0,0,1-2.71.39c-.87,0-1.29-.5-1.3-1.37V4a18.29,18.29,0,0,0-2.78.28c-1.06.27-1.12.68-.35,1.39.4.36.47.66,0,1a13.78,13.78,0,0,1-2,1.15c-1,.38-2.1.6-3.19.9a17.9,17.9,0,0,0,.29,1.83c.13.55.22,1.37.58,1.55.66.32,1.19-.37,1.66-.83A1.72,1.72,0,0,1,38,10.76a4.55,4.55,0,0,1,1.15,1.39,2,2,0,0,1-1.84,3c-.48,0-1,0-1.46,0s-.93.35-.84,1c.27,1.86.55,3.72.86,5.77,2.7-.6,5.2-1.14,7.69-1.71a1.85,1.85,0,0,0,.79-.45.87.87,0,0,0,.3-.63c0-.18-.33-.34-.55-.43s-.65-.13-1-.26c-1.21-.5-1.55-1.72-.66-2.48a6.17,6.17,0,0,1,5.36-1.48c1.31.25,1.48.59,1.05,1.86s-.18,1.51,1,1.27C52,17.21,54,16.59,56.23,16ZM12.54,25.91l-.9.11a22.8,22.8,0,0,1-2.59.29c-1.86,0-2.4-.89-1.66-2.57a1.88,1.88,0,0,0,.19-.41c0-.37.19-.9,0-1.09a1.19,1.19,0,0,0-1.09-.17A1.38,1.38,0,0,0,6,23c-.12.57,0,1.18-.17,1.75a1.92,1.92,0,0,1-3,1.5c-.17-.08-.36-.13-.62-.22a4.1,4.1,0,0,0-.24.85c-.17,2.68-.38,5.36-.45,8a11.77,11.77,0,0,0,.45,3.23A1.83,1.83,0,0,0,3.39,39.4c0-.87-.12-1.66-.11-2.44s.41-1,1.12-.79a2.51,2.51,0,0,1,1.94,2.15,7.23,7.23,0,0,1,0,2,1.35,1.35,0,0,0,.58,1.47A8.74,8.74,0,0,0,13,43.06c-.24-2.2-.42-4.31-.74-6.4-.16-1-.55-1.11-1.4-.46s-1.37.55-1.9-.4a4.6,4.6,0,0,1-.28-3.14c.24-1.47,1.15-1.94,2.47-1.26.6.31.92.1,1.15-.42a2.11,2.11,0,0,0,.24-.8C12.55,28.78,12.54,27.38,12.54,25.91ZM49.76,4.36c.27.52.44.88.64,1.23C51.12,6.84,51.72,7,53,6.22a2,2,0,0,1,2.57.38,7.36,7.36,0,0,1,.74,1.16,1.66,1.66,0,0,1,0,1.89c-.42.56-1.06.45-1.7.38a1.67,1.67,0,0,0-1.15.27c-.43.37-.26.89.08,1.3,1,1.26,2,2.51,3.08,3.74a.77.77,0,0,0,.71.11c1.23-.56,2.45-1.16,3.66-1.76.58-.28,1.11-.66,1.7-.89a1.52,1.52,0,0,1,2.24,1.12,3.12,3.12,0,0,0,.15.43,1.45,1.45,0,0,0,1.55.9c.69,0,1.48-.16,1.67-.84.11-.38-.4-.95-.63-1.43,0,0-.07-.07-.1-.11-.59-.72-.53-1,.32-1.37s1.51-.55,2.35-.86C69.45,9.7,68.73,8.83,68,8a3,3,0,0,1-.68-1A3.11,3.11,0,0,0,65,4.6a5.06,5.06,0,0,1-1.9-1C62.39,3.09,61.71,2.54,61,2a1.1,1.1,0,0,0-.68-.22c-.52.08-1,.24-1.67.4.46.36.83.62,1.17.92.53.49.5.9-.07,1.32a2.25,2.25,0,0,1-3.18-.6A1.35,1.35,0,0,0,55,3.1C53.28,3.48,51.57,3.92,49.76,4.36Zm28.5,27.2.34,0c-.07-1-.14-2.06-.24-3.08,0-.07-.16-.19-.25-.18s-.25.13-.24.19A7.08,7.08,0,0,0,78.26,31.56ZM27.43,69.61l2,.64C29.37,69.64,28.85,69.47,27.43,69.61Z" transform="translate(-0.67 -1)"/><path class="cls-1" d="M64.11,31.84l1.67,3.93a1.71,1.71,0,0,0,3.27.08,1.73,1.73,0,0,1,.39-.66,1.57,1.57,0,0,1,.94-.44,1.33,1.33,0,0,1,.93.62,3.47,3.47,0,0,1,0,3.05,1.3,1.3,0,0,1-1,.6c-2.26-.08-2.67,1.22-2.63,2.75,0,1.84.28,3.65,2.06,5-2.79,1.93-5,4.63-8.95,4.61.25-.66.46-1.14.62-1.63.49-1.56-.1-2.26-1.68-2a12.9,12.9,0,0,0-5,2A5.06,5.06,0,0,0,53.39,51c-.47.68-.28,1.24.44,1.67.38.23.79.42,1.19.64l0,.25c-1.11.48-2.2,1-3.35,1.42a29.42,29.42,0,0,1-8.18,1.18.59.59,0,0,1-.45-.2c-.63-1-1.28-2.13-.69-3.37a3.28,3.28,0,0,1,3-2.11,17.15,17.15,0,0,1,1.76.13c1.09.13,1.9-.32,2-1.39a7.89,7.89,0,0,0-.12-3,2.65,2.65,0,0,0-4.44-1.08A18.94,18.94,0,0,1,42.3,46.9c-.51.34-.88.13-1.23-.32a5.85,5.85,0,0,1-1-3.33c0-.79-.29-1.79.08-2.31s1.41-.26,2.16-.32A16.18,16.18,0,0,0,50,38.39a5.6,5.6,0,0,0,.76-.51,1.53,1.53,0,0,0,.1-2.36,6.25,6.25,0,0,0-1.2-.83c-.63-.34-.6-.72-.16-1.2,1.24-1.39,2.94-1.79,4.65-2.15a4.16,4.16,0,0,1,1.21-.13c.62,0,.84.44.62,1a8.18,8.18,0,0,0-.39.92,12.74,12.74,0,0,0-.2,1.38,4,4,0,0,0,1.44.15c1.33-.37,2.64-.82,3.93-1.32S63,32.36,64.11,31.84ZM61.39,44.71c-1,0-1.1-.11-1.31-1.12-.3-1.4-.62-2.8-.93-4.19-.18-.77-.46-1.56.48-2.11l-3.05,1.18c1.33,0,1.6.47,1,1.66l-1.56,3.25c-.26.54-.53,1.08-.87,1.77-.35-1.41-.67-2.62-1-3.83-.2-.83-.53-1.73.63-2.22l-3.42,1.14c1.27.07,1.27.07,1.6,1.41s.61,2.59.93,3.88c.2.84.33,1.63-.63,2.14l3.25-1.12c-.42-.09-1.09-.14-1.1-.26A2.61,2.61,0,0,1,55.7,45c.48-1.1,1-2.17,1.56-3.25.25-.51.51-1,.84-1.68.31,1.38.56,2.55.83,3.72.21.87.48,1.75-.91,2.08l.23.16Z" transform="translate(-0.67 -1)"/><path class="cls-1" d="M40.15,39.87c-.14-1.16-.22-2.25-.43-3.33a4.72,4.72,0,0,0-2.19-3.2,3.06,3.06,0,0,0-4.17.68c-.45.55-1,.55-1.49,0a4.36,4.36,0,0,1-.41-4.15,1.86,1.86,0,0,1,1.86-.64c.48,0,1,.2,1.44.27a2.06,2.06,0,0,0,2.53-2.39,19.09,19.09,0,0,0-.46-2.25c-.18-.75-.4-1.48-.63-2.29,1.48-.27,2.95-.5,4.39-.81a34.18,34.18,0,0,0,3.47-.95,2.2,2.2,0,0,0,1-.86c.58-.89.28-1.55-.73-1.86A5.64,5.64,0,0,1,43,17.55a.64.64,0,0,1,0-1.18,7.08,7.08,0,0,1,4.94-1.31c.51,0,.67.3.5.85-.62,1.91,0,2.69,2,2.41a27.42,27.42,0,0,0,3.42-.82,23.64,23.64,0,0,0,2.33-.79c.42-.17.76-.16,1,.25.49.95,1,1.9,1.4,2.87.24.54-.06.81-.63.83a10.18,10.18,0,0,0-1.23.09,1.39,1.39,0,0,0-1.39,1.37A4.58,4.58,0,0,0,56.79,26a2.43,2.43,0,0,0,3.73-.93,1.55,1.55,0,0,1,.71-.83c.58-.2.75.4,1,.77a10.55,10.55,0,0,1,1.71,5.35.86.86,0,0,1-.35.69q-3.23,1.45-6.47,2.83a7.18,7.18,0,0,1-1.13.28,16.73,16.73,0,0,0,.72-1.93,1.33,1.33,0,0,0-1.24-1.8c-2.48,0-4.84.58-6.6,2.52-.84.93-.64,1.81.44,2.48.5.31,1.36.5,1.17,1.21-.12.48-.78.87-1.27,1.18a14.66,14.66,0,0,1-7.41,1.95Zm11-11.32.2-.06c.12-1.06.2-2.13.39-3.18.24-1.39,0-2.89.9-4.18l-1.81.46c.77.16.82.67.76,1.25-.09.92-.19,1.83-.28,2.75,0,.47-.09.94-.15,1.47-2.59-2-2.07-3.35-.8-5.38l-2.11.58c1,.38,1.13.84.55,2.23-.3-.31-.57-.61-.86-.88s-.74-.78-.06-1.3L45.59,23c1.94,1,3.88,2.71,2.51,5-1-1.13-1.87-2.26-2.82-3.36-.43-.49-.78-.94-.11-1.56l-2.43.71a7.23,7.23,0,0,1,1.43,1c1,1.14,2,2.36,2.95,3.54.32.38.65.75,1.09,1.25L49,26.07l1.13,1.29Z" transform="translate(-0.67 -1)"/><path class="cls-1" d="M13.51,43c-.19-1.94-.35-3.77-.56-5.6a5.14,5.14,0,0,0-.42-1.47c-.4-.94-1-1.09-1.82-.51s-1.44.56-1.61-.59a6.58,6.58,0,0,1,.2-2.41c.15-.59.73-.64,1.28-.42,1.43.58,2.12.24,2.38-1.33a25.76,25.76,0,0,0,.22-3.05c0-.59,0-1.17,0-2l7.28-.47.11.31-.56.63c-1.17,1.26-.85,2.6.76,3.17a6,6,0,0,0,5.66-1.52c.66-.8.45-1.79-.68-2.75a3.28,3.28,0,0,1,.88-.57c2.86-.65,5.73-1.26,8.71-1.91.42,1.8.83,3.38,1.15,5,.15.76-.72,1.34-1.64,1.2a12.21,12.21,0,0,0-2-.25,2.42,2.42,0,0,0-2.54,2.44,5,5,0,0,0,.76,3.45c.89,1.2,2,1.27,2.94.17a2.26,2.26,0,0,1,3.08-.41,4.49,4.49,0,0,1,2,3.49,20,20,0,0,1,0,2.33c-1.49.22-3,.34-4.51.69q-3.36.79-6.64,1.86c-1.32.43-1.38,1.07-.37,2.06l.57.52c.74.69.75,1.06-.19,1.32a46.78,46.78,0,0,1-4.71,1,1.68,1.68,0,0,1-1.1-.4.67.67,0,0,1,0-1.16c.93-.83.9-1.52,0-2.37-1.18-1.1-2.6-1.05-4.05-.89Zm11.62-5.08c.32-.24.48-.38.66-.5a3.28,3.28,0,0,0-1.23-6.05,4.54,4.54,0,0,0-3.43.78,3,3,0,0,0-1.48,3.21,3.14,3.14,0,0,0,2.51,2.77,1.7,1.7,0,0,1,.48.25l-.07.22c-.88,0-1.79.72-2.72-.32L20.19,40l3.12-.53c-.18-.91-.22-1.76-1.23-2a.81.81,0,0,1-.47-.47,9.93,9.93,0,0,1-.72-2.7,2.47,2.47,0,0,1,3-2.48c1.82.56,2.87,3.66,1.57,5.05-.73.78-.52,1.46-.41,2.31l3.36-.54-.38-1.86C27.64,37.68,26.52,38.1,25.13,37.88Z" transform="translate(-0.67 -1)"/><path class="cls-1" d="M27.6,43.56c2.36-1.28,9.12-2.83,11.49-2.65a26,26,0,0,0,.24,3.19,10.14,10.14,0,0,0,1,2.78,1.58,1.58,0,0,0,2.42.66A14,14,0,0,0,45,46a2.21,2.21,0,0,1,2.15-.67A1.88,1.88,0,0,1,48.46,47a9,9,0,0,1,0,2.14.8.8,0,0,1-1.07.78,10.42,10.42,0,0,0-1.37-.14,4.32,4.32,0,0,0-4.41,2.47,3,3,0,0,0,0,2.81c.19.39.41.76.65,1.22-1.18.22-2.32.36-3.42.65-1.89.5-3.8,1-5.64,1.7-1.37.52-1.37,1.29-.19,2.14l1,.68a7,7,0,0,1-1.29.62,11.65,11.65,0,0,1-4.95.22c-1.12-.19-1.34-.63-.93-1.66s.06-1.77-1.19-1.87c-2.43-.17-4.86-.42-7.29-.43a2.64,2.64,0,0,1-3-2.23A4.2,4.2,0,0,1,15.07,55a1.61,1.61,0,0,1,.4-1.12,1.62,1.62,0,0,1,1.18-.14c.67.14,1.3.47,2,.6,1.22.23,1.93-.49,1.79-1.71a4.93,4.93,0,0,0-1.53-2.94,1.65,1.65,0,0,0-2.43-.32,2,2,0,0,1-2.82-1,6.9,6.9,0,0,1-.34-4.06c.05-.21.26-.51.42-.52q3.33-.3,6.66-.5a2,2,0,0,1,1.07.33c.86.51.88.84.17,1.52a1.47,1.47,0,0,0,.32,2.4,3.6,3.6,0,0,0,2.09.54,23.08,23.08,0,0,0,4.18-1c1.44-.46,1.61-1.48.54-2.54C28.38,44.23,28,43.91,27.6,43.56ZM32.75,54l0-.21H31.38l-.25-.9,1-.41-.05-.18-1,.05-.27-.82L32.08,51l0-.21-1.11.08.63-1.07-1-.3c-.18.78,0,1.61-.84,1.95-.44.17-.92.45-1.44,0l1.34-1.67-1-.61L27.36,52.2c1.07-.51,1.08-.51,1.34.86.17.88.28,1.77.47,2.64a3.23,3.23,0,0,0,.41.87,16,16,0,0,1,1.7-.46c.85-.13,1.73-.2,2.69-.3a1.14,1.14,0,0,0-1.48-.29c-.51.22-.77.08-.83-.47,0-.24-.07-.49-.11-.75Zm-7.48-5.21c-.59,1-.33,2.34-1.75,2.82l1.77.92L24,53.9c.31,1.16,1.05.16,1.57.11.91.77.21,2.18,1.39,3a6.24,6.24,0,0,0-1-3.25,1.29,1.29,0,0,1,1.89-.11c-.17-.87-.81-1-1.53-1.27l.4.61-1.59.48-.08-.15,2.15-2.64-.86-.49-1,2-.94-.65,1.62-2.19Zm.08,7.84V55C25,55.51,24.6,56,25.35,56.63Zm2.69-1,.18-.23c-.15-.58-.64-.69-1.11-.84l-.15.19Z" transform="translate(-0.67 -1)"/><path class="cls-1" d="M59.19,63.48l.73-1.16a3.93,3.93,0,0,0-1.17,0c-1.25.48-2.52,1-3.73,1.55-.71.35-.67.63.15,1.36l-6.23,1.5c-.28-.56-.56-1.07-.81-1.59a1.47,1.47,0,0,0-1.85-.85c-1.08.29-2.14.67-3.22,1a10.25,10.25,0,0,1-1.78.43,1.39,1.39,0,0,1-1.6-1.3c-.1-.66.2-1.05,1.15-1.23,1.3-.25,2.65-.31,3.93-.65a4.86,4.86,0,0,0,2.05-1.2c.65-.62.42-1.35-.37-1.83S45,58.62,44.26,58.1A5.27,5.27,0,0,1,43.44,57c1.41-.14,2.67-.24,3.92-.39A20.42,20.42,0,0,0,54,54.75,6.09,6.09,0,0,0,55.23,54c.59-.5.53-.93-.12-1.33l-.07,0c-1.57-.62-1.51-1.44,0-2.26a25.64,25.64,0,0,1,4.74-1.9c1-.32,1.31.11,1,1.15-.11.34-.24.68-.35,1-.35,1.06,0,1.52,1.11,1.43a7.39,7.39,0,0,0,3.66-1.27c1.39-1,2.72-2,4.08-3l.62-.44C70.6,49,69.56,52.4,68,53.23a4.58,4.58,0,0,1-1.47.4,3,3,0,0,0-2.78,3.2c0,.84.41,1.15,1.18.85a11.32,11.32,0,0,0,1.61-.86c.39-.23.74-.51,1.1-.77l.2.19c-.52.73-1,1.47-1.58,2.18-.71.94-1.45,1.85-2.18,2.78-.12.13-.21.32-.36.39-1.39.64-2.79,1.26-4.2,1.88A.86.86,0,0,1,59.19,63.48Zm-.79-1.89.19.12c.25-.34.66-.66.72-1,.26-1.59.41-3.19.6-4.78.07-.7-.27-1-.95-.94s-1.43,0-2.14,0a.33.33,0,0,0-.26.13,4.43,4.43,0,0,0-.46,1.37c0,.11.69.29,1.08.4.13,0,.3,0,.45-.06,1.25-.21,1.44,0,1.27,1.2S58.56,60.38,58.4,61.59Z" transform="translate(-0.67 -1)"/><path class="cls-1" d="M73.27,14.35l.48.8.37-.55c.42,1.19.77,2.27,1.18,3.32.11.3.46.5.59.8.35.88.62,1.79,1,2.67.26.66-.05.93-.6,1.15a4,4,0,0,0-1.14.58c-.73.64-.73,1.38-.26,2.37a6.83,6.83,0,0,1,.64,2.09A1.87,1.87,0,0,1,75,28.86c-.29.29-.81.33-1.23.49-.11-.35-.22-.7-.32-1.05A17.47,17.47,0,0,0,72.76,26c-.34-.77-.84-.87-1.55-.38-.53.35-1,.8-1.51,1.19l-5,3.88A20.53,20.53,0,0,0,64.19,28a33.91,33.91,0,0,0-1.67-3.69,2,2,0,0,0-1-.83c-.71-.27-1.11,0-1.46.71a2.84,2.84,0,0,1-.9,1.16c-1.17.72-1.8.55-2.42-.68a6.75,6.75,0,0,1-.62-2.18.9.9,0,0,1,1-1.05.75.75,0,0,0,.15,0c2.13-.11,2.49-.55,1.8-2.57a16.37,16.37,0,0,0-1.42-2.56c1.76-.93,3.56-1.93,5.41-2.83,1-.48,1.11-.36,1.41.67a2.52,2.52,0,0,0,3.76,1.32,1.25,1.25,0,0,0,.37-1.86c-.29-.42-.65-.8-1.06-1.3.92-.29,1.78-.54,2.62-.87.54-.21,1-.3,1.39.23Zm-5.4,5.43a5,5,0,0,0,2.35,3.13c1.11.69,1.94.31,2.16-1a7.73,7.73,0,0,0-1-5c-.19-.35-.64-.57-1-.85a5.46,5.46,0,0,0-.53,1.26,1.9,1.9,0,0,0,.27,1.1,16,16,0,0,0,1.23,1.85c.26.34.69.56.33,1.08a1.06,1.06,0,0,1-1.34.46,6.41,6.41,0,0,1-1.53-1A9.82,9.82,0,0,1,67.87,19.78Z" transform="translate(-0.67 -1)"/><path class="cls-1" d="M56.23,16c-2.19.57-4.24,1.19-6.33,1.6-1.2.24-1.4-.14-1-1.27s.26-1.61-1.05-1.86A6.17,6.17,0,0,0,42.47,16c-.89.76-.55,2,.66,2.48.31.13.66.14,1,.26s.52.25.55.43a.87.87,0,0,1-.3.63,1.85,1.85,0,0,1-.79.45c-2.49.57-5,1.11-7.69,1.71-.31-2.05-.59-3.91-.86-5.77-.09-.62.3-.91.84-1s1,0,1.46,0a2,2,0,0,0,1.84-3A4.55,4.55,0,0,0,38,10.76a1.72,1.72,0,0,0-2.28.43c-.47.46-1,1.15-1.66.83-.36-.18-.45-1-.58-1.55a17.9,17.9,0,0,1-.29-1.83c1.09-.3,2.17-.52,3.19-.9a13.78,13.78,0,0,0,2-1.15c.5-.29.43-.59,0-1-.77-.71-.71-1.12.35-1.39A18.29,18.29,0,0,1,41.57,4v.72c0,.87.43,1.4,1.3,1.37a14.76,14.76,0,0,0,2.71-.39c1.15-.26,2.27-.63,3.4-1,0,0,.05,0,.08,0a18.23,18.23,0,0,0,1.08,1.57,2.39,2.39,0,0,0,3.41.44c.72-.49,1.09-.43,1.59.3a4,4,0,0,1,.61,1.06,1.42,1.42,0,0,1-.08,1.06c-.15.21-.62.22-1,.27-.17,0-.35-.09-.53-.11a1.33,1.33,0,0,0-1.48.56,1.49,1.49,0,0,0,.07,1.79c1,1.23,2,2.44,2.94,3.66C55.85,15.49,56,15.66,56.23,16ZM43.66,8.78c.6,1.59-.1,2.87-.74,4.3.21-.15.3-.19.37-.25l.32-.33a5.15,5.15,0,0,0,1.11-3.72.43.43,0,0,0-.24-.33,3.76,3.76,0,0,0-1.06,0c-.45.07-1,.67-1.31,0S41.45,8,41,8.07l.69,1-2.37.49c1,.32.65,1.82,2,1.74l-.78-1.6Zm3.8,4,.38-.2a8,8,0,0,1-.68-1.64,8,8,0,0,1,.07-1.8L46.81,9l-1.24,2.65,1-.87Z" transform="translate(-0.67 -1)"/><path class="cls-1" d="M21.12,65.63,19.2,64l.12-.22,1.57.32.18-.19L16.71,58.7c.65.07,1.08.13,1.51.15l6.06.34c.39,0,.77,0,1.16,0,1,.08,1.07.2.76,1.12-.39,1.17-.16,1.8,1,2.15a10.69,10.69,0,0,0,6.5-.13c.33-.11.77-.5.79-.79s-.36-.66-.61-1-.6-.62-.91-.93a4.46,4.46,0,0,1,1.17-.77c2.57-.66,5.16-1.26,7.74-1.88.53-.13.83.06,1.06.58a4.35,4.35,0,0,0,2.35,2.09,5,5,0,0,1,1.09.93c-.38.41-.7,1-1.17,1.18a27.36,27.36,0,0,1-3.15.6,19.73,19.73,0,0,0-2,.47,1.45,1.45,0,0,0-1.18,1.35A1.64,1.64,0,0,0,40.12,66,9.09,9.09,0,0,0,43,65.79a20.69,20.69,0,0,0,2.91-1,1,1,0,0,1,1.43.59c.22.46.46.9.71,1.4a38.09,38.09,0,0,1-9.19,2.4v.33L40.4,70v.18c-1,.14-2,.29-3,.41-.14,0-.42-.11-.44-.21-.14-.78-.78-.65-1.27-.67-1.69-.07-3.38-.07-5.07-.13a2.08,2.08,0,0,1-1-.33c-1.69-1-3.35-2.08-5-3.13a1.32,1.32,0,0,0-1.64,0,1,1,0,0,1-.78,0,6.87,6.87,0,0,1-1.11-.5Zm13.1,2c-.13,0-.37-.08-.37-.07-.16.59-.65.59-1.11.59s-1.1-.06-1.65-.09l0,.24c.79.1,1.57.25,2.35.3a.72.72,0,0,0,.8-.82,4.2,4.2,0,0,0,3.37.52c.5-.14.74-.47.43-.89a15,15,0,0,0-1.37-1.5l-.16.16a2.52,2.52,0,0,1,.49.55c.15.3.34.69.25,1s-.54.4-.83.38A20.1,20.1,0,0,1,34.22,67.61Zm-4.69-2.8a9.34,9.34,0,0,1,4.61,0,8.12,8.12,0,0,0-4.06-.67C29.68,64.18,29.21,64.3,29.53,64.81Zm2.77,2.75.11-.19a4.46,4.46,0,0,0-.85-.53c-.71-.24-1.07-.14-1.44.27A1.93,1.93,0,0,1,32.3,67.56Z" transform="translate(-0.67 -1)"/><path class="cls-1" d="M77,39.81a9.33,9.33,0,0,0-.12,1.48,2.32,2.32,0,0,1-1.68,2.52l.17-2.41-.17-.11c-.75.86-1.47,1.75-2.26,2.57s-1.73,1.59-2.59,2.38a5.28,5.28,0,0,1-2.18-5.14c.07-1,.5-1.26,1.48-1.28,1.53,0,2.16-.49,2.36-2a9.51,9.51,0,0,0-.13-2.66,1.47,1.47,0,0,0-1.37-1.26,1.49,1.49,0,0,0-1.55.9c-.16.26-.28.55-.44.81a1.14,1.14,0,0,1-2,0c-.57-1.22-1-2.49-1.54-3.76a.61.61,0,0,1,.2-.54A36.87,36.87,0,0,0,71,26.67c1-.87,1.52-.69,1.79.62.12.6.2,1.21.31,1.82.22,1.09.8,1.31,1.77.73a1.74,1.74,0,0,0,.94-1.65,11.85,11.85,0,0,0-.62-2.88c-.3-.84-.34-1.18.41-1.65a5.06,5.06,0,0,1,1.27-.52c.13,0,.43.11.45.22.29,1.31.54,2.63.76,3.72-.24.42-.5.66-.48.89,0,1.2.15,2.4.31,3.59a2.9,2.9,0,0,0,.51.94l.32-.09c-.12,1.33-.22,2.67-.36,4,0,.21-.22.39-.31.6l-1.17,2.81Zm-.76-5a2.07,2.07,0,0,1,.29.65c0,1,0,1.93,0,2.89.09-1.81.11-3.62.08-5.44a13.12,13.12,0,0,0-.23-2.06c0-.18-.29-.33-.45-.49l-.16.15a6.34,6.34,0,0,1,.47,4.31l-2.61,2c.58.7.91-.32,1.49-.42v2.2a.33.33,0,0,0,.18-.28C75.37,37.11,75.22,35.83,76.21,34.86ZM74.8,31.57a2.67,2.67,0,0,0-.33.71,9.48,9.48,0,0,0-.23,1.9.88.88,0,0,0,.57.65,1.12,1.12,0,0,0,.74-.53A2,2,0,0,0,74.8,31.57Z" transform="translate(-0.67 -1)"/><path class="cls-1" d="M12.54,25.91c0,1.47,0,2.87,0,4.27a2.11,2.11,0,0,1-.24.8c-.23.52-.55.73-1.15.42-1.32-.68-2.23-.21-2.47,1.26A4.6,4.6,0,0,0,9,35.8c.53,1,1.05,1.05,1.9.4s1.24-.58,1.4.46c.32,2.09.5,4.2.74,6.4a8.74,8.74,0,0,1-6.12-1.3,1.35,1.35,0,0,1-.58-1.47,7.23,7.23,0,0,0,0-2A2.51,2.51,0,0,0,4.4,36.17c-.71-.22-1.11,0-1.12.79s.07,1.57.11,2.44a1.83,1.83,0,0,1-1.47-1.24,11.77,11.77,0,0,1-.45-3.23c.07-2.68.28-5.36.45-8A4.1,4.1,0,0,1,2.16,26c.26.09.45.14.62.22a1.92,1.92,0,0,0,3-1.5c.13-.57,0-1.18.17-1.75a1.38,1.38,0,0,1,.55-.94,1.19,1.19,0,0,1,1.09.17c.18.19,0,.72,0,1.09a1.88,1.88,0,0,1-.19.41c-.74,1.68-.2,2.57,1.66,2.57A22.8,22.8,0,0,0,11.64,26ZM6,32l-.5.89-.21-.13.13-2.1A10.62,10.62,0,0,0,6.61,31a10,10,0,0,0,1.1,0l-.91-.75c.1-1-.41-1.71-1.66-1.84-.27,0-.51-.42-.74-.63-.07,1,.18,1.33,1.18,1.56a4.54,4.54,0,0,1,.94.46c-1,.75-1.75-.16-2.75-.07.14.21.23.49.35.5,1,.08,1,.75.85,1.47a3.16,3.16,0,0,0,0,.92,10.92,10.92,0,0,0,.34,1.11l.92-.61s.08,0,.12,0c.2.86,0,1.56-.54,1.73s-1-.32-1.27-1.17a3.78,3.78,0,0,1-.2-.82c-.08-.62-.12-1.24-.18-1.87a8.63,8.63,0,0,0,0,1.83,9.19,9.19,0,0,0,.52,2.29,1.43,1.43,0,0,0,1.07.68c.26,0,.71-.42.82-.74A2.93,2.93,0,0,0,6,32Z" transform="translate(-0.67 -1)"/><path class="cls-1" d="M49.76,4.36c1.81-.44,3.52-.88,5.23-1.26a1.35,1.35,0,0,1,1.59.74,2.25,2.25,0,0,0,3.18.6c.57-.42.6-.83.07-1.32-.34-.3-.71-.56-1.17-.92.65-.16,1.15-.32,1.67-.4A1.1,1.1,0,0,1,61,2c.7.52,1.38,1.07,2.07,1.6a5.06,5.06,0,0,0,1.9,1,3.11,3.11,0,0,1,2.37,2.34A3,3,0,0,0,68,8c.7.88,1.42,1.75,2.19,2.69-.84.31-1.61.56-2.35.86s-.91.65-.32,1.37c0,0,.08.07.1.11.23.48.74,1,.63,1.43-.19.68-1,.81-1.67.84a1.45,1.45,0,0,1-1.55-.9,3.12,3.12,0,0,1-.15-.43,1.52,1.52,0,0,0-2.24-1.12c-.59.23-1.12.61-1.7.89-1.21.6-2.43,1.2-3.66,1.76a.77.77,0,0,1-.71-.11c-1.05-1.23-2.07-2.48-3.08-3.74-.34-.41-.51-.93-.08-1.3A1.67,1.67,0,0,1,54.59,10c.64.07,1.28.18,1.7-.38a1.66,1.66,0,0,0,0-1.89,7.36,7.36,0,0,0-.74-1.16A2,2,0,0,0,53,6.22c-1.25.76-1.85.62-2.57-.63C50.2,5.24,50,4.88,49.76,4.36Zm14.41,5c.74-.37.84-.64.42-1.3-.2-.32-.47-.6-.69-.92a2.34,2.34,0,0,1-.19-.52c.66.28.85,1.24,1.74.75L64.13,5.9l-.79.56c-.45-.33-.84-.67-1.28-.93a1.6,1.6,0,0,0-1.93.16,1.28,1.28,0,0,0-.48,1.69,19.63,19.63,0,0,0,2.12,3.06c.46.54,1,.39,1.42-.17-1.27-.5-3.37-3.49-3-4.47l3.35,4.08.65-.55Z" transform="translate(-0.67 -1)"/><path class="cls-1" d="M8.92,54.67,9,55l-.15.14a11.07,11.07,0,0,1-1.57-1.65C6.41,52.11,5.72,50.68,5,49.28a.37.37,0,0,1-.07-.14,15.13,15.13,0,0,0-1-2.62C3,44.13,2.44,41.64,1.74,39.2L2,39.09a6,6,0,0,0,.7.64,5.28,5.28,0,0,0,.81.33,3.28,3.28,0,0,0,.2-.85c0-.46-.15-.91-.21-1.37-.11-.82.14-1,.93-.84A1.87,1.87,0,0,1,6,39.38a3.09,3.09,0,0,0,2.22,3.84,17.3,17.3,0,0,0,3,.69,8.31,8.31,0,0,0,1.42,0,7.72,7.72,0,0,0,.58,4.81,2.61,2.61,0,0,0,3.91,1.11,1.15,1.15,0,0,1,1,0,3.57,3.57,0,0,1,1.55,2.79.91.91,0,0,1-1.19,1.07,11.08,11.08,0,0,1-1.82-.6c-.59-.22-1.17-.42-1.73.05A1.57,1.57,0,0,0,14.53,55c.32,1,.75,1.94,1.19,3.07-1.18-.37-2.28-.67-3.35-1.06a1.15,1.15,0,0,1-.52-.73c-.37-1.68-1.69-2.51-3-3.32-.4-.25-.74,0-.59.51a7.57,7.57,0,0,0,.67,1.25ZM8.1,46.79v0A6.54,6.54,0,0,0,5.89,44a3.33,3.33,0,0,0-1-.33,3,3,0,0,0-.12,1c.17.68-.11,1.51.6,2,0,0,0,.09,0,.14l.93,2.85c.12.35.28.7.42,1.05l.12-.05-1.33-4a14.27,14.27,0,0,0,1.82.63,1.06,1.06,0,0,1,.93,1.13l-1.25-.15.09,1c.3-.22.55-.51.69-.47s.73.38.71.54a3.32,3.32,0,0,1-.59,1L9,50.62l.7,1.47L9.89,52l-1.4-4.29h.78l.1-.2Z" transform="translate(-0.67 -1)"/><path class="cls-1" d="M4.49,19.28a6.48,6.48,0,0,1,.27-1.67c.52-1.22,1.13-2.4,1.77-3.57a1,1,0,0,1,.8-.38c1.82.13,2.52-.3,3.21-2a1.48,1.48,0,0,1,1.93-1.1,13.3,13.3,0,0,0-.79,1.3,4.68,4.68,0,0,0-.22,1,3.75,3.75,0,0,0,1,0c1-.21,2-.48,3-.72a6.1,6.1,0,0,0,.06,2.28c.37.85,1.29.35,2,.31a2.25,2.25,0,0,1,0,2.5,1.5,1.5,0,0,1-1.83.57,1.94,1.94,0,0,0-2.22,1,7,7,0,0,0-1.23,4.73c0,.5.09,1,.17,1.72-1.44.1-2.81.23-4.17.25-.74,0-1-.54-.72-1.24.16-.41.38-.79.53-1.19.34-.86.15-1.5-.45-1.68a1.58,1.58,0,0,0-1.89,1.15c-.08.53-.1,1.07-.14,1.6-.1,1.51-1,2.09-2.38,1.49l-1-.43c.24-.93.47-1.86.71-2.8,0-.09.09-.26.11-.25.86.16.56-.67.85-1C4.1,20.52,4.3,19.9,4.49,19.28Zm5.7-.89c-.47.41-.67,1.1-1.45.63.45-.68,1-1.34.67-2.31-.53.5-.94,1.14-1.75,1-.24-.05-.49-.27-.69-.23-.66.15-.71.25-.78,1,1.13,0,2.31.05,3.05-1.16A2.24,2.24,0,0,1,9,18a3.71,3.71,0,0,0-.38,1.12.51.51,0,0,0,.73.52A1.24,1.24,0,0,0,10.19,18.39Zm-.3-.28.16.14c.82-.92,1.8-1.75,1.87-3.14-.54-.27-.81-.11-1,.37C10.6,16.37,10.24,17.24,9.89,18.11Z" transform="translate(-0.67 -1)"/><path class="cls-1" d="M76.94,39.83c.29-.56.56-1.12.85-1.67.14-.27.29-.53.47-.85.5,2.22-2.26,11.1-4.51,14.48l.87-2.58a3.22,3.22,0,0,0-2.44,2.07L73.76,50c.08,2-1.5,2.91-2.19,4.47l.39-.14.26-.14a13.59,13.59,0,0,1-7.53,6.69c1.07-1.84,3-3.16,3.59-5.27l-.16-.19-1.2.68c-.57.32-1.13.68-1.73,1s-.8,0-.9-.52a2,2,0,0,1,1.43-2.23,1.09,1.09,0,0,1,.3-.07c2.55,0,3.56-1.75,4.15-3.81a18.47,18.47,0,0,0,.35-3.25,1.07,1.07,0,0,1,.18-.61c1.43-1.42,2.88-2.81,4.21-4.1A12.22,12.22,0,0,0,74.85,44c0,.63.35.77.85.39a4.14,4.14,0,0,0,1.38-3.65,6.91,6.91,0,0,0-.11-.9ZM72.63,49.7c1.47-.25,2.75-1.63,2.35-2.55C73.77,47.6,73.26,48.67,72.63,49.7Z" transform="translate(-0.67 -1)"/><path class="cls-1" d="M21.1,65.6a2.4,2.4,0,0,0,2.88.68.71.71,0,0,1,.57,0c1.55,1,3.08,2,4.68,3-2.79.36-6.47-1.39-10.48-4,.34-.54-1.2-2.13-2.55-2.62l-.38-.3a3.77,3.77,0,0,0-3.32-2.69l.55.53.07.31c-.09,0-.23,0-.28-.06-1.49-1.67-3-3.36-4.47-5l.19-.18.84.41.17-.15c-.22-.29-.43-.58-.65-.86l0,0c0-.38-.07-.76-.11-1.14a6.65,6.65,0,0,1,1.16.59,3,3,0,0,1,1.4,2c.12.89,1,1.31,1.73,1.6s1.66.48,2.5.72a1.5,1.5,0,0,1,.68.29c1.35,1.57,2.68,3.16,4,4.78l-1.69-.31-.09.27a5.18,5.18,0,0,0,2.56,2.12Z" transform="translate(-0.67 -1)"/><path class="cls-1" d="M16,4.25l1.68-1.8.12.1-.48.73,2.89-.81.15.18c-.36.57-.69,1.15-1.09,1.69a.82.82,0,0,1-.59.22,2.7,2.7,0,0,0-2.48,1.93c0,.2,0,.56.09.63a.94.94,0,0,0,.7,0,7.26,7.26,0,0,0,.89-.51l.18.12c-.16.49-.28,1-.47,1.48-.78,2-1.6,3.84-4.19,3.85a6.09,6.09,0,0,0-1.51.42l-.12-.17a16.9,16.9,0,0,0,.82-1.51,2.84,2.84,0,0,0,.11-.84,2.47,2.47,0,0,0-.94,0,3,3,0,0,0-1.6,1.77c-.49,1.22-1.13,1.53-2.47,1.19.41-.65.8-1.3,1.22-1.93a1.21,1.21,0,0,1,.43-.41,3.11,3.11,0,0,0,1.81-2.26,1.12,1.12,0,0,1,.31-.52,9.17,9.17,0,0,1,3.21-2.68,7.55,7.55,0,0,0,1.35-.87,6.35,6.35,0,0,1-2.5,2.82l-.18-.14L14,6l-.17-.12-1.1,1.56L14,7.14l-1.1,1.7h.74l-.3.71.2.12.77-1.18-.79-.17,3-4.07Z" transform="translate(-0.67 -1)"/><path class="cls-1" d="M49.81,69.69c1-.2,2-.26,2.69-1.18l-.06-.24a5.47,5.47,0,0,0-1,.08c-.74.19-1.47.45-2.21.64a.86.86,0,0,1-.68-.12c-.1-.12,0-.46.07-.68s.28-.7.45-1.11c2.15-.76,4.73-.57,6.81-2.23L55,64.28a11.38,11.38,0,0,1,4.13-1.65l-.73,1.23A4.21,4.21,0,0,0,61,63.25c.82-.3,1.59-.72,2.44-1.11-.16.51-.3,1-.45,1.43l-2.36,1.27c-.47.33-1.06.58-.9,1.43a34.51,34.51,0,0,1-7.78,3.54,23.52,23.52,0,0,1-2.89.6.84.84,0,0,1-.66-.35l1.48-.38Zm9.53-4.54L59.19,65l-1.54.76c.49.09.85-.62,1.42,0Z" transform="translate(-0.67 -1)"/><path class="cls-1" d="M49.83,69.68a3.14,3.14,0,0,0-2.42.61c.21.09.38.18.56.24a4,4,0,0,0,.5.1l0,.22c-1.15.16-2.29.35-3.43.49s-2.23.23-3.35.3A19.82,19.82,0,0,1,35,71.23a21.77,21.77,0,0,0-2.57-.36,17.8,17.8,0,0,1-1.8-.31c-.16,0-.25-.31-.37-.47.17-.1.35-.29.52-.29,1.61,0,3.23,0,4.84.07.16,0,.46.06.48.13.18.85.89.6,1.41.69s1.22-.27,1.76.19l.46.36A3.78,3.78,0,0,1,41,70.73a4.54,4.54,0,0,1,1.5.57c-.76-1-1.71-.53-2.51-.79L41.25,70v-.21l-1.61-.31v-.1c1.4-.28,2.81-.5,4.2-.85s2.74-.8,4.32-1.27a11.21,11.21,0,0,1-.4,1.06c-.33.64-.16,1.05.56,1a21.13,21.13,0,0,0,2.45-.56c.29-.07.59-.1.89-.15l.1.33-2,.78Z" transform="translate(-0.67 -1)"/><path class="cls-1" d="M60.58,64.84l2.36-1.27a2.26,2.26,0,0,0,.37-.39c.32-.51.52-1.2,1-1.53,1.06-.77,2.25-1.37,3.42-2.06-.53,1.44-5.77,5.62-7.54,6Z" transform="translate(-0.67 -1)"/><path class="cls-1" d="M13.12,60.57l-.07-.31c.12,0,.25-.16.36-.14.53.08,1.83,1.29,1.81,1.8s.29.47.6.5l.38.3,2.12,2-.16.22c-.59-.4-1.2-.78-1.77-1.22a21.37,21.37,0,0,1-1.72-1.43C14.12,61.72,13.64,61.13,13.12,60.57Z" transform="translate(-0.67 -1)"/><path class="cls-1" d="M73.27,14.35,71.55,11.7a3.49,3.49,0,0,1-.23-.48.26.26,0,0,1,.11-.24.29.29,0,0,1,.26,0c.58,1,1.17,1.94,1.72,2.93C73.47,14,73.32,14.21,73.27,14.35Z" transform="translate(-0.67 -1)"/><path class="cls-1" d="M78.26,31.56a7.08,7.08,0,0,1-.39-3.1c0-.06.15-.19.24-.19s.25.11.25.18c.1,1,.17,2.05.24,3.08Z" transform="translate(-0.67 -1)"/><path class="cls-1" d="M4.49,19.28c-.19.62-.39,1.24-.58,1.86l-.38.35-.27-.15,1-2.66Z" transform="translate(-0.67 -1)"/><path class="cls-2" d="M27.43,69.61c1.42-.14,1.94,0,2,.64Z" transform="translate(-0.67 -1)"/><path d="M61.39,44.71,58.25,46,58,45.82c1.39-.33,1.12-1.21.91-2.08-.27-1.17-.52-2.34-.83-3.72-.33.67-.59,1.17-.84,1.68-.52,1.08-1.08,2.15-1.56,3.25a2.61,2.61,0,0,0-.22,1.34c0,.12.68.17,1.1.26l-3.25,1.12c1-.51.83-1.3.63-2.14-.32-1.29-.62-2.59-.93-3.88s-.33-1.34-1.6-1.41l3.42-1.14c-1.16.49-.83,1.39-.63,2.22.29,1.21.61,2.42,1,3.83.34-.69.61-1.23.87-1.77l1.56-3.25c.57-1.19.3-1.62-1-1.66l3.05-1.18c-.94.55-.66,1.34-.48,2.11.31,1.39.63,2.79.93,4.19C60.29,44.6,60.38,44.68,61.39,44.71Z" transform="translate(-0.67 -1)"/><path d="M51.17,28.55l-1-1.19L49,26.07l-.79,3.44c-.44-.5-.77-.87-1.09-1.25-1-1.18-1.92-2.4-2.95-3.54a7.23,7.23,0,0,0-1.43-1L45.17,23c-.67.62-.32,1.07.11,1.56.95,1.1,1.87,2.23,2.82,3.36,1.37-2.29-.57-4-2.51-5l2.31-.64c-.68.52-.36.9.06,1.3s.56.57.86.88c.58-1.39.49-1.85-.55-2.23l2.11-.58c-1.27,2-1.79,3.37.8,5.38.06-.53.1-1,.15-1.47.09-.92.19-1.83.28-2.75.06-.58,0-1.09-.76-1.25l1.81-.46c-.94,1.29-.66,2.79-.9,4.18-.19,1.05-.27,2.12-.39,3.18Z" transform="translate(-0.67 -1)"/><path d="M25.13,37.88c1.39.22,2.51-.2,2.94-1.12l.38,1.86-3.36.54c-.11-.85-.32-1.53.41-2.31,1.3-1.39.25-4.49-1.57-5.05a2.47,2.47,0,0,0-3,2.48,9.93,9.93,0,0,0,.72,2.7.81.81,0,0,0,.47.47c1,.27,1.05,1.12,1.23,2L20.19,40l-.34-1.77c.93,1,1.84.28,2.72.32l.07-.22a1.7,1.7,0,0,0-.48-.25,3.14,3.14,0,0,1-2.51-2.77,3,3,0,0,1,1.48-3.21,4.54,4.54,0,0,1,3.43-.78,3.28,3.28,0,0,1,1.23,6.05C25.61,37.5,25.45,37.64,25.13,37.88Z" transform="translate(-0.67 -1)"/><path d="M32.75,54l-1.2.3c0,.26.09.51.11.75.06.55.32.69.83.47a1.14,1.14,0,0,1,1.48.29c-1,.1-1.84.17-2.69.3a16,16,0,0,0-1.7.46,3.23,3.23,0,0,1-.41-.87c-.19-.87-.3-1.76-.47-2.64-.26-1.37-.27-1.37-1.34-.86l1.32-3.11,1,.61L28.3,51.37c.52.48,1,.2,1.44,0,.86-.34.66-1.17.84-1.95l1,.3-.63,1.07L32,50.74l0,.21-1.28.58.27.82,1-.05.05.18-1,.41.25.9h1.34Zm-1.64,1.8-.39-1.33-1,.23L29.93,56Zm-1.76-2.68.94-.38c-.18-1.06-.4-1.18-1.2-.71Zm1.33,1-.28-1-1,.32.24,1Z" transform="translate(-0.67 -1)"/><path d="M25.27,48.79l.81.59-1.62,2.19.94.65,1-2,.86.49-2.15,2.64.08.15L26.75,53l-.4-.61c.72.26,1.36.4,1.53,1.27a1.29,1.29,0,0,0-1.89.11A6.24,6.24,0,0,1,27,57c-1.18-.84-.48-2.25-1.39-3-.52.05-1.26,1.05-1.57-.11l1.27-1.37-1.77-.92C24.94,51.13,24.68,49.79,25.27,48.79Z" transform="translate(-0.67 -1)"/><path d="M25.35,56.63c-.75-.59-.37-1.12,0-1.63Z" transform="translate(-0.67 -1)"/><path d="M28,55.63,27,54.75l.15-.19c.47.15,1,.26,1.11.84Z" transform="translate(-0.67 -1)"/><path d="M58.4,61.59c.16-1.21.33-2.41.5-3.61s0-1.41-1.27-1.2c-.15,0-.32.1-.45.06-.39-.11-1.08-.29-1.08-.4a4.43,4.43,0,0,1,.46-1.37.33.33,0,0,1,.26-.13c.71,0,1.43.05,2.14,0s1,.24.95.94c-.19,1.59-.34,3.19-.6,4.78-.06.37-.47.69-.72,1Z" transform="translate(-0.67 -1)"/><path d="M67.87,19.78a9.82,9.82,0,0,0,1,1.12,6.41,6.41,0,0,0,1.53,1,1.06,1.06,0,0,0,1.34-.46c.36-.52-.07-.74-.33-1.08a16,16,0,0,1-1.23-1.85,1.9,1.9,0,0,1-.27-1.1,5.46,5.46,0,0,1,.53-1.26c.32.28.77.5,1,.85a7.73,7.73,0,0,1,1,5c-.22,1.31-1,1.69-2.16,1A5,5,0,0,1,67.87,19.78Zm3.79-.46.27-.16-1-1.73-.23.15C70.49,18.45,71.23,18.79,71.66,19.32Z" transform="translate(-0.67 -1)"/><path d="M43.66,8.78l-3.14.92.78,1.6c-1.36.08-1-1.42-2-1.74l2.37-.49-.69-1c.48-.1.84-.32,1.14.39s.86.07,1.31,0a3.76,3.76,0,0,1,1.06,0,.43.43,0,0,1,.24.33,5.15,5.15,0,0,1-1.11,3.72l-.32.33c-.07.06-.16.1-.37.25C43.56,11.65,44.26,10.37,43.66,8.78Z" transform="translate(-0.67 -1)"/><path d="M47.46,12.73l-.93-1.92-1,.87L46.81,9l.42.06a8,8,0,0,0-.07,1.8,8,8,0,0,0,.68,1.64Z" transform="translate(-0.67 -1)"/><path d="M34.22,67.61a20.1,20.1,0,0,0,2.16.32c.29,0,.76-.17.83-.38s-.1-.65-.25-1a2.52,2.52,0,0,0-.49-.55l.16-.16A15,15,0,0,1,38,67.39c.31.42.07.75-.43.89a4.2,4.2,0,0,1-3.37-.52Z" transform="translate(-0.67 -1)"/><path d="M29.53,64.81c-.32-.51.15-.63.55-.67a8.12,8.12,0,0,1,4.06.67A9.34,9.34,0,0,0,29.53,64.81Z" transform="translate(-0.67 -1)"/><path d="M34.22,67.61l0,.15a.72.72,0,0,1-.8.82c-.78,0-1.56-.2-2.35-.3l0-.24c.55,0,1.1.09,1.65.09s.95,0,1.11-.59C33.85,67.53,34.09,67.59,34.22,67.61Z" transform="translate(-0.67 -1)"/><path d="M32.3,67.56a1.93,1.93,0,0,0-2.18-.45c.37-.41.73-.51,1.44-.27a4.46,4.46,0,0,1,.85.53Z" transform="translate(-0.67 -1)"/><path d="M74.8,31.57a2,2,0,0,1,.75,2.73,1.12,1.12,0,0,1-.74.53.88.88,0,0,1-.57-.65,9.48,9.48,0,0,1,.23-1.9A2.67,2.67,0,0,1,74.8,31.57Zm.92,1.74L75,32.26c-.21.37-.56.74-.58,1.11s.34.69.53,1Z" transform="translate(-0.67 -1)"/><path d="M76.22,34.87a6.34,6.34,0,0,0-.47-4.31l.16-.15c.16.16.42.31.45.49A13.12,13.12,0,0,1,76.59,33c0,1.82,0,3.63-.08,5.44,0-1,0-1.92,0-2.89a2.07,2.07,0,0,0-.29-.65Z" transform="translate(-0.67 -1)"/><path d="M76.21,34.86c-1,1-.84,2.25-.93,3.47a.33.33,0,0,1-.18.28v-2.2c-.58.1-.91,1.12-1.49.42l2.61-2Z" transform="translate(-0.67 -1)"/><path d="M6,32A2.93,2.93,0,0,1,6.51,35c-.11.32-.56.76-.82.74a1.43,1.43,0,0,1-1.07-.68,9.19,9.19,0,0,1-.52-2.29,8.63,8.63,0,0,1,0-1.83c.06.63.1,1.25.18,1.87a3.78,3.78,0,0,0,.2.82c.25.85.79,1.33,1.27,1.17s.74-.87.54-1.73c0,0-.09,0-.12,0l-.92.61a10.92,10.92,0,0,1-.34-1.11,3.16,3.16,0,0,1,0-.92c.11-.72.17-1.39-.85-1.47-.12,0-.21-.29-.35-.5,1-.09,1.77.82,2.75.07a4.54,4.54,0,0,0-.94-.46c-1-.23-1.25-.54-1.18-1.56.23.21.47.6.74.63,1.25.13,1.76.8,1.66,1.84l.91.75a10,10,0,0,1-1.1,0,10.62,10.62,0,0,1-1.23-.35l-.13,2.1.21.13Z" transform="translate(-0.67 -1)"/><path d="M64.19,9.33l-.65.55L60.19,5.8c-.37,1,1.73,4,3,4.47-.44.56-1,.71-1.42.17a19.63,19.63,0,0,1-2.12-3.06,1.28,1.28,0,0,1,.48-1.69,1.6,1.6,0,0,1,1.93-.16c.44.26.83.6,1.28.93l.79-.56,1.32,1.46c-.89.49-1.08-.47-1.74-.75a2.34,2.34,0,0,0,.19.52c.22.32.49.6.69.92.42.66.32.93-.42,1.3,0-.33,0-.75-.12-1-.78-.9-1.62-1.75-2.46-2.59a3.6,3.6,0,0,0-.8-.43,1.42,1.42,0,0,0,.1.35q1.48,1.76,3,3.48C63.93,9.28,64.08,9.29,64.19,9.33Z" transform="translate(-0.67 -1)"/><path d="M8.1,46.79l1.27.74-.1.2H8.49L9.89,52l-.16.07L9,50.62,8,50.37a3.32,3.32,0,0,0,.59-1c0-.16-.43-.45-.71-.54s-.39.25-.69.47l-.09-1,1.25.15a1.06,1.06,0,0,0-.93-1.13,14.27,14.27,0,0,1-1.82-.63l1.33,4-.12.05c-.14-.35-.3-.7-.42-1.05l-.93-2.85s0-.12,0-.14c-.71-.52-.43-1.35-.6-2a3,3,0,0,1,.12-1,3.33,3.33,0,0,1,1,.33,6.57,6.57,0,0,1,2.22,2.78c-.83-1-1.48-2.21-2.9-2.59a1.22,1.22,0,0,0,.19,1.62A14.14,14.14,0,0,0,8.1,46.79Z" transform="translate(-0.67 -1)"/><path d="M10.19,18.39a1.24,1.24,0,0,1-.88,1.24.51.51,0,0,1-.73-.52A3.71,3.71,0,0,1,9,18a2.24,2.24,0,0,0,.28-.68c-.74,1.21-1.92,1.12-3,1.16.07-.78.12-.88.78-1,.2,0,.45.18.69.23.81.18,1.22-.46,1.75-1,.35,1-.22,1.63-.67,2.31C9.52,19.49,9.72,18.8,10.19,18.39Z" transform="translate(-0.67 -1)"/><path d="M9.89,18.11c.35-.87.71-1.74,1-2.63.18-.48.45-.64,1-.37-.07,1.39-1.05,2.22-1.87,3.14Z" transform="translate(-0.67 -1)"/><path d="M72.63,49.7c.63-1,1.14-2.1,2.35-2.55C75.38,48.07,74.1,49.45,72.63,49.7Z" transform="translate(-0.67 -1)"/><path d="M15.82,62.42c-.31,0-.62,0-.6-.5s-1.28-1.72-1.81-1.8c-.11,0-.24.09-.36.14l-.55-.53A3.77,3.77,0,0,1,15.82,62.42Z" transform="translate(-0.67 -1)"/><path d="M16,4.25h.49l-3,4.07.79.17-.77,1.18-.2-.12.3-.71h-.74L14,7.14l-1.29.31,1.1-1.56L14,6l-.57.91.18.14a6.35,6.35,0,0,0,2.5-2.82Z" transform="translate(-0.67 -1)"/><path d="M59.34,65.15l-.27.59c-.57-.61-.93.1-1.42,0L59.19,65Z" transform="translate(-0.67 -1)"/><path class="cls-1" d="M31.11,55.8,29.93,56l-.26-1.28,1-.23Z" transform="translate(-0.67 -1)"/><path class="cls-1" d="M29.35,53.12,29.09,52c.8-.47,1-.35,1.2.71Z" transform="translate(-0.67 -1)"/><path class="cls-1" d="M30.68,54.13l-1.05.35-.24-1,1-.32Z" transform="translate(-0.67 -1)"/><path class="cls-1" d="M71.66,19.32c-.43-.53-1.17-.87-1-1.74l.23-.15,1,1.73Z" transform="translate(-0.67 -1)"/><path class="cls-1" d="M75.72,33.31,75,34.41c-.19-.35-.55-.7-.53-1s.37-.74.58-1.11Z" transform="translate(-0.67 -1)"/><path class="cls-1" d="M64.19,9.33c-.11,0-.26-.05-.33-.13q-1.48-1.72-3-3.48a1.42,1.42,0,0,1-.1-.35,3.6,3.6,0,0,1,.8.43c.84.84,1.68,1.69,2.46,2.59.17.21.09.63.12,1Z" transform="translate(-0.67 -1)"/><path class="cls-1" d="M8.1,46.79a14.14,14.14,0,0,1-2.7-.95,1.22,1.22,0,0,1-.19-1.62c1.42.38,2.07,1.59,2.9,2.59Z" transform="translate(-0.67 -1)"/></svg>